<?xml version="1.0" encoding="UTF-8"?>
<svg version="1.1" xmlns="http://www.w3.org/2000/svg" width="1387" height="638">
<path d="M0 0 C457.71 0 915.42 0 1387 0 C1387 210.54 1387 421.08 1387 638 C929.29 638 471.58 638 0 638 C0 427.46 0 216.92 0 0 Z " fill="#FAEEE8" transform="translate(0,0)"/>
<path d="M0 0 C254.76 0 509.52 0 772 0 C770.68 0.99 769.36 1.98 768 3 C756.94691375 11.43525003 751.67438161 22.46719334 749.68530273 36.16757202 C749.07515833 41.53533067 748.72105718 46.92238033 748.375 52.3125 C748.21521019 54.70525611 748.05105283 57.09741368 747.87539673 59.48905945 C747.76770784 60.9618634 747.66934431 62.43538598 747.58139038 63.90950012 C747.45924044 65.6129906 747.23912634 67.30895919 747 69 C746.34 69.33 745.68 69.66 745 70 C744.78085937 69.38253906 744.56171875 68.76507813 744.3359375 68.12890625 C741.95928899 61.78151571 738.98440133 56.46900018 735 51 C734.1028125 49.700625 734.1028125 49.700625 733.1875 48.375 C724.0011109 38.40120612 710.68245915 31.95237303 697.1875 30.625 C685.56369398 31.21324929 677.35286119 34.51894206 669.2578125 42.77734375 C664.49113382 48.38589851 662.81027332 54.98170957 661 62 C660.82326752 62.64413345 660.64653503 63.28826691 660.46444702 63.95191956 C659.69369269 67.3507289 659.77426128 70.80712851 659.7265625 74.27734375 C659.71426102 75.10433777 659.70195953 75.93133179 659.68928528 76.78338623 C659.65687918 79.50145761 659.638264 82.21926961 659.625 84.9375 C659.61977325 85.86462799 659.61454651 86.79175598 659.60916138 87.74697876 C659.56205367 105.93856698 661.489056 123.54683598 664.42749023 141.4753418 C664.99644766 144.97812999 665.50865052 148.48556856 666 152 C665.5153125 151.62488281 665.030625 151.24976563 664.53125 150.86328125 C649.78400145 139.60432418 634.84756491 134.20499382 616 136 C610.70961082 137.18083825 605.93750145 138.82855251 601.29296875 141.63671875 C599 143 599 143 597 143 C596.87995605 142.24195068 596.75991211 141.48390137 596.63623047 140.70288086 C589.89596028 93.13790599 589.89596028 93.13790599 563.4765625 54.66015625 C554.97968754 48.96430158 545.1288945 47.60826357 535.21875 49.54296875 C529.81364873 50.91701837 524.79744826 52.80665699 519.77734375 55.23046875 C511.82770906 57.43311015 504.50495623 55.66045686 496.875 53.125 C481.4921786 48.20155487 468.79130444 46.10434778 453.75 53.625 C449.99098436 56.87142259 448.11302181 60.55785188 446 65 C445.5875 65.86625 445.175 66.7325 444.75 67.625 C442.92653222 73.39931463 442.86893231 79.30326711 442.9375 85.3046875 C442.94128662 86.06927277 442.94507324 86.83385803 442.94897461 87.62161255 C442.9610962 90.03946843 442.97974718 92.45719943 443 94.875 C443.02650403 98.08072549 443.04650316 101.28639441 443.0625 104.4921875 C443.07494751 105.59987991 443.07494751 105.59987991 443.08764648 106.72994995 C443.09620543 108.48685538 443.05333687 110.24388351 443 112 C441.26696765 113.73303235 438.90584655 113.50940641 436.57714844 113.84912109 C424.93538914 115.58860777 414.42631037 118.30852602 406 127 C405.34 127 404.68 127 404 127 C403.61070312 125.98164062 403.22140625 124.96328125 402.8203125 123.9140625 C399.65032079 115.8204872 396.15585771 108.04335103 391.9375 100.4375 C391.33929443 99.35106201 391.33929443 99.35106201 390.72900391 98.24267578 C384.37148798 87.01821145 376.72034424 77.06526466 364 73 C351.71571571 70.4237126 339.12509474 71.08107585 328.18359375 77.43359375 C324.02156531 80.4192349 320.3021162 84.39576761 318 89 C316.43198241 98.85611057 316.76195046 109.04837165 316.75 119 C316.74766357 119.88885895 316.74532715 120.7777179 316.74291992 121.69351196 C316.72607596 138.82593137 317.90172397 155.73014102 319.72460938 172.7565918 C319.9878265 175.85662678 320.04952724 178.89069155 320 182 C319.0527002 181.98428955 318.10540039 181.9685791 317.12939453 181.95239258 C313.56960427 181.90085499 310.01021817 181.86345325 306.45019531 181.83520508 C304.91790457 181.82024256 303.38565571 181.79986503 301.85351562 181.77368164 C285.83166483 181.49692344 285.83166483 181.49692344 271.66015625 188.30859375 C261.40437682 198.75742314 259.77571861 210.77195653 259.8125 224.75 C259.85014544 228.16749164 259.91107533 231.58346844 260 235 C259.01 235 258.02 235 257 235 C257 235.66 257 236.32 257 237 C257.99 237 258.98 237 260 237 C261.18031238 240.84841348 261.33235351 244.758279 261.5625 248.75 C261.60568359 249.44738281 261.64886719 250.14476562 261.69335938 250.86328125 C261.79889596 252.57531922 261.8998991 254.28763561 262 256 C258.96674922 257.03841018 255.94514258 258.01497349 252.8515625 258.859375 C243.40666621 261.4664408 236.74112785 264.86673554 231 273 C231 271.02 231 269.04 231 267 C230.34 267 229.68 267 229 267 C228.95875 268.2375 228.9175 269.475 228.875 270.75 C228.8046875 272.859375 228.8046875 272.859375 228 275 C223.40754682 278.76031041 220.2901367 279.48464219 214.4140625 279.390625 C213.12967285 279.38063477 211.8452832 279.37064453 210.52197266 279.36035156 C208.90597168 279.32393555 207.2899707 279.28751953 205.625 279.25 C200.46875 279.1675 195.3125 279.085 190 279 C190 260.52 190 242.04 190 223 C196.14625 222.938125 202.2925 222.87625 208.625 222.8125 C211.51886475 222.77153198 211.51886475 222.77153198 214.47119141 222.72973633 C216.01464208 222.72096762 217.55809974 222.71332459 219.1015625 222.70703125 C219.89135498 222.69168335 220.68114746 222.67633545 221.49487305 222.66052246 C226.41239964 222.65820942 229.73126641 223.28941521 234 226 C236.96807592 229.66062697 237.32420072 232.35312297 237 237 C237.66 237 238.32 237 239 237 C239 229.74 239 222.48 239 215 C236.77378906 215.48082031 234.54757813 215.96164063 232.25390625 216.45703125 C219.61632092 218.86059779 206.75333873 218.57023309 193.9375 218.6875 C191.41339453 218.72074392 188.88930523 218.75523985 186.36523438 218.79101562 C180.24360084 218.87509787 174.12194955 218.94377777 168 219 C169.6396875 219.61875 169.6396875 219.61875 171.3125 220.25 C174.63837292 221.50504638 176.0934665 223.00178673 178 226 C178.38311005 228.16210747 178.38311005 228.16210747 178.39440918 230.54074097 C178.40575897 231.4462973 178.41710876 232.35185364 178.42880249 233.28485107 C178.42587189 234.27092346 178.42294128 235.25699585 178.41992188 236.27294922 C178.42839142 237.31728119 178.43686096 238.36161316 178.44558716 239.43759155 C178.46900583 242.89341375 178.46997806 246.34879192 178.46875 249.8046875 C178.47584903 252.2059853 178.48354764 254.6072814 178.49182129 257.00857544 C178.50527762 262.04401361 178.50682981 267.07929496 178.50097656 272.11474609 C178.49508202 278.56683226 178.52565759 285.01816557 178.56609344 291.47010612 C178.5919474 296.43038994 178.59484986 301.39049199 178.59120178 306.35083389 C178.59289543 308.72948218 178.60256132 311.10813864 178.62034607 313.48672104 C178.64248715 316.814413 178.63285675 320.14057488 178.61523438 323.46826172 C178.62849762 324.45028564 178.64176086 325.43230957 178.65542603 326.4440918 C178.60031302 330.92438825 178.46385835 334.02823749 175.58654785 337.59573364 C171.83692298 341.08111163 170.02950776 341.10933713 165 341 C165 341.66 165 342.32 165 343 C189.42 343 213.84 343 239 343 C244.64359037 362.18820724 244.64359037 362.18820724 246.4375 369.75 C248.04407797 376.37958876 249.82388752 382.93349336 251.75 389.4765625 C254.11099734 397.61976623 256.24335346 405.80264149 258.25390625 414.0390625 C258.66152443 415.70497437 258.66152443 415.70497437 259.07737732 417.40454102 C260.19160799 421.97026943 261.30136841 426.53698983 262.39819336 431.10693359 C263.21538765 434.50341976 264.04619138 437.89635309 264.87890625 441.2890625 C265.11863663 442.30384674 265.358367 443.31863098 265.60536194 444.36416626 C268.91467986 457.74401707 274.4249829 469.91476418 286 478 C297.88457187 483.50511504 310.79315284 484.29097035 323.6875 484.5625 C345.07403545 485.07403545 345.07403545 485.07403545 347 487 C347.13201953 489.90749981 347.18967745 492.77896643 347.1875 495.6875 C347.18814453 496.58452637 347.18878906 497.48155273 347.18945312 498.40576172 C347.14019349 504.86437131 346.67614953 511.20510111 346 517.625 C342.48253879 548.63283707 342.48253879 548.63283707 353 577 C358.57021921 582.99174931 366.33728288 586.47281285 374.43359375 587.2265625 C385.48371738 587.57939664 396.6211762 585.62191324 405 578 C412.59754744 570.14253647 414.20688733 556.15025544 416.25 545.80859375 C416.56420898 544.22401367 416.56420898 544.22401367 416.88476562 542.60742188 C417.28497768 540.54537689 417.66993669 538.48029299 418.03710938 536.41210938 C419.27062461 529.9502208 421.11315447 524.38549309 425 519 C428.69186889 517.15406555 432.96172979 517.65550301 437 518 C441.61626897 519.80636612 443.57422938 522.75490141 446 527 C447.37805176 530.90052979 447.17120981 534.97597234 447.2109375 539.0625 C447.23903759 540.68099915 447.26770221 542.29948858 447.296875 543.91796875 C447.33783781 546.4474222 447.37475488 548.97670043 447.40136719 551.50634766 C447.54708999 564.27719241 448.00071103 575.89767956 455 587 C455 587.66 455 588.32 455 589 C455.66 589 456.32 589 457 589 C457 589.66 457 590.32 457 591 C458.33275362 591.66782483 459.6662449 592.33417753 461 593 C461.79027588 593.40001221 462.58055176 593.80002441 463.39477539 594.2121582 C470.02319939 597.41574325 476.1715802 599.13827837 483.4375 600.1875 C484.48172119 600.34766602 485.52594238 600.50783203 486.60180664 600.67285156 C489.73161225 601.14026379 492.86390738 601.57701341 496 602 C496.87398438 602.12004395 497.74796875 602.24008789 498.6484375 602.36376953 C508.74836689 603.69993921 518.81500967 604.20671332 529 604.3125 C530.01441162 604.33022461 531.02882324 604.34794922 532.07397461 604.36621094 C542.23619979 604.35624879 553.06172344 602.85254815 561 596 C568.36986333 588.16737781 571.43352745 578.15105465 574.5 568.0625 C583.27257783 539.32129183 583.27257783 539.32129183 597 532 C603.79583954 529.73472015 614.12287751 529.4604052 620.6875 532.6875 C626.66163297 536.68176616 631.59119041 542.29224532 636.53320312 547.46484375 C646.41447917 557.80663199 655.92429153 563.58527083 670.546875 564.1328125 C682.73694862 563.66396351 693.8777246 559.0260771 702.2421875 550.13671875 C704.49144232 547.40262455 706.34462217 544.54507278 708.08984375 541.46875 C708.39019531 540.9840625 708.69054687 540.499375 709 540 C709.33 540 709.66 540 710 540 C709.8546315 542.20836398 709.7086713 544.41668901 709.5625 546.625 C709.49591187 547.63856567 709.49591187 547.63856567 709.42797852 548.67260742 C709.12661115 553.22171865 708.78755166 557.76682916 708.4375 562.3125 C708.28593274 564.54128414 708.13951915 566.77042924 708 569 C707.91685547 570.22009766 707.91685547 570.22009766 707.83203125 571.46484375 C707.27026718 587.1139856 711.00461864 605.05865063 721.25 617.13671875 C729.83296579 626.27527831 741.55363846 631.15413077 754 632 C755.01126953 632.11408203 755.01126953 632.11408203 756.04296875 632.23046875 C765.376742 632.85952086 774.20954767 628.91970377 781.3125 623.0625 C809.40546249 595.42485295 806.12303576 545.24674969 807 509.1875 C807.39044059 493.17714999 807.78344692 477.18486912 808.94140625 461.20703125 C809.01661499 460.15186813 809.09182373 459.09670502 809.16931152 458.00956726 C810.31568885 443.39142765 812.96347618 429.08647209 817 415 C817.99 415 818.98 415 820 415 C825.97856969 424.78311404 825.39847447 437.39669681 825.81640625 448.5 C825.87778267 449.98521498 825.93980432 451.47040342 826.00242615 452.95556641 C826.16485131 456.85054171 826.31824159 460.74582134 826.46972656 464.64123535 C826.6218297 468.50845775 826.78313268 472.3752948 826.94335938 476.2421875 C827.42259338 487.889907 827.88888157 499.53795885 828.28125 511.18896484 C828.32458969 512.46312256 828.36792938 513.73728027 828.4125824 515.05004883 C828.49146688 517.40607574 828.56773728 519.76219239 828.64076233 522.1184082 C829.18090305 538.387425 830.24359851 556.68511326 842.5 568.8125 C849.58856674 574.46223289 857.53648026 576.50511061 866.46948242 575.65307617 C870.00250925 575.21013533 873.49328767 574.6198558 877 574 C878.37478516 573.81050781 878.37478516 573.81050781 879.77734375 573.6171875 C884.99412626 572.80125147 889.83521363 571.07899507 894.75 569.1875 C895.37664551 568.9512793 896.00329102 568.71505859 896.64892578 568.47167969 C901.47393159 566.5231937 906.58661757 563.82676486 909 559 C912 560 912 560 913.140625 561.8203125 C913.50671875 562.58085938 913.8728125 563.34140625 914.25 564.125 C919.16074467 573.34547283 925.86192786 577.98925223 935.625 581.1875 C951.98171752 584.68796484 966.80001265 582.91222982 981 574 C981.73863281 573.64421875 982.47726562 573.2884375 983.23828125 572.921875 C985.61319664 571.67912548 985.88261356 570.43195871 987 568 C987.763125 567.01 988.52625 566.02 989.3125 565 C997.84171767 553.18452493 1000.59392315 537.51013694 1003.28125 523.50390625 C1005.80645161 511.19354839 1005.80645161 511.19354839 1009 508 C1009.52787109 509.41539062 1009.52787109 509.41539062 1010.06640625 510.859375 C1016.14244081 526.80609572 1023.03179709 540.33449026 1039 548 C1059.34868581 556.46852025 1059.34868581 556.46852025 1080.75 553.9375 C1094.70413945 547.8828794 1103.06488322 536.81263985 1108.88671875 522.98828125 C1126.95189088 474.49755605 1125.57229095 421.96566391 1126 371 C1129.27357652 372.5419756 1131.19907578 374.11301411 1133.625 376.8125 C1141.50631986 384.86928523 1151.36746377 387.98568734 1162.4375 388.25 C1175.6325874 387.92012281 1188.34068248 383.25035448 1198 374 C1205.41032135 366.15156843 1208.49183828 358.77513657 1211.02734375 348.4921875 C1212 345 1212 345 1214 343 C1215.97680664 342.74462891 1215.97680664 342.74462891 1218.41015625 342.7265625 C1219.30951904 342.70891846 1220.20888184 342.69127441 1221.13549805 342.6730957 C1222.10140869 342.65722412 1223.06731934 342.64135254 1224.0625 342.625 C1241.25622108 342.068646 1257.20760576 339.06569359 1270.22265625 326.90234375 C1281.85804777 314.44863898 1283.52944261 299.31416714 1283.08447266 283.02392578 C1282.54665015 270.13794732 1277.30924071 259.45799867 1268.41015625 250.1875 C1254.34879676 237.425164 1235.20365194 235.65073872 1217.03515625 235.90234375 C1214.41601804 235.9064027 1211.79687573 235.90829332 1209.17773438 235.90820312 C1205.09996778 235.91365815 1201.02337198 235.93419384 1196.94604492 235.99633789 C1192.97534148 236.05519778 1189.00628739 236.04209403 1185.03515625 236.02734375 C1183.81635269 236.05819565 1182.59754913 236.08904755 1181.34181213 236.12083435 C1173.09647284 236.02753876 1173.09647284 236.02753876 1169.91392517 233.04507446 C1168.35049918 230.74932932 1167.12395449 228.53641828 1166 226 C1165.50371094 224.8965625 1165.00742188 223.793125 1164.49609375 222.65625 C1163.30705263 219.11106467 1162.12530003 215.56587402 1161 212 C1160.40058594 210.15341797 1160.40058594 210.15341797 1159.7890625 208.26953125 C1154.68764886 192.07188002 1151.37788931 175.34365992 1148.203125 158.6796875 C1147.97464371 157.48437157 1147.97464371 157.48437157 1147.74154663 156.26490784 C1146.99310475 152.34060683 1146.25536971 148.41477721 1145.53564453 144.48510742 C1143.3312653 132.63336764 1140.33078937 121.67931272 1134.5 111.0625 C1134.12230469 110.34771484 1133.74460937 109.63292969 1133.35546875 108.89648438 C1126.99076576 97.0747594 1117.54293976 89.97234314 1104.74609375 85.8515625 C1093.3961811 83.27149894 1083.31877697 84.31834213 1073 90 C1072.32453125 90.34933594 1071.6490625 90.69867188 1070.953125 91.05859375 C1061.72532677 96.63202056 1057.52598813 108.05158696 1055 118 C1053.9412042 123.93318982 1053.43424974 129.9411749 1052.875 135.9375 C1052.70799111 137.61319812 1052.54017528 139.28881601 1052.37158203 140.96435547 C1051.21144776 152.71298996 1050.30457401 164.47566408 1049.68310547 176.26538086 C1049.62010254 177.3663208 1049.55709961 178.46726074 1049.4921875 179.6015625 C1049.44433105 180.55369629 1049.39647461 181.50583008 1049.34716797 182.48681641 C1048.99248943 185.05436978 1048.29747376 186.77435861 1047 189 C1046.84966309 187.9797876 1046.69932617 186.9595752 1046.54443359 185.90844727 C1039.03584549 132.34734715 1039.03584549 132.34734715 1016 84 C1015.55269531 83.3503125 1015.10539063 82.700625 1014.64453125 82.03125 C1006.47602726 70.64352326 995.74323938 61.75317381 982 58 C973.00020462 56.90215262 965.42442127 59.04546363 957 62 C944.09330773 66.44230339 935.6731461 67.55902459 923 62 C922.13761719 61.56816406 921.27523437 61.13632812 920.38671875 60.69140625 C908.92682337 54.96994737 896.39792591 53.43520197 884 57 C874.66167446 60.71107482 868.031843 66.33657707 863.6875 75.4375 C861.90047516 79.83987021 860.83864258 84.33229196 860 89 C857.76191899 86.27751242 856.60745809 84.16891751 855.8125 80.75 C853.64981243 73.02611581 849.72610702 66.06242966 846 59 C845.31357422 57.69289063 845.31357422 57.69289063 844.61328125 56.359375 C837.06781871 42.42157708 826.42286964 23.94857976 813 15 C813 14.34 813 13.68 813 13 C812.45085938 12.74089844 811.90171875 12.48179688 811.3359375 12.21484375 C808.64946591 10.81769883 806.1622825 9.21493188 803.625 7.5625 C799.82879857 5.12317378 796.09799798 2.88286394 792 1 C792 0.67 792 0.34 792 0 C988.35 0 1184.7 0 1387 0 C1387 210.54 1387 421.08 1387 638 C929.29 638 471.58 638 0 638 C0 427.46 0 216.92 0 0 Z " fill="#FEFEFE" transform="translate(0,0)"/>
<path d="M0 0 C55.87889273 0 55.87889273 0 68.28515625 12.2578125 C79.62720738 25.44427195 80.97052754 40.81040651 80.2265625 57.49072266 C79.02680979 70.77850105 72.27505794 80.76816659 62.35546875 89.2421875 C45.05288987 102.1545598 18.93529828 97 0 97 C0 64.99 0 32.98 0 0 Z " fill="#F6F5F5" transform="translate(1191,241)"/>
<path d="M0 0 C20.91891892 0 20.91891892 0 28.9375 6.3125 C34.81949245 13.9769144 36.67962873 20.39709771 36 30 C34.81892301 36.9163068 32.43561111 42.42776336 27 47 C21.63178856 50.39262688 16.61778498 52.1561439 10.25 52.0625 C9.45078125 52.05347656 8.6515625 52.04445313 7.828125 52.03515625 C7.22484375 52.02355469 6.6215625 52.01195312 6 52 C6 52.66 6 53.32 6 54 C6.79921875 53.95359375 7.5984375 53.9071875 8.421875 53.859375 C20.15754558 53.47369569 31.03573249 56.00931072 40 64 C46.35093933 71.64291964 47.84271223 80.28874477 47 90 C45.65316255 97.67357807 42.55806622 104.40490552 36.3359375 109.3125 C25.23151402 116.20839768 12.65561934 114 0 114 C0 76.38 0 38.76 0 0 Z " fill="#E9DCD6" transform="translate(754,223)"/>
<path d="M0 0 C6.31292668 -0.10243299 12.62563476 -0.17189283 18.93920898 -0.21972656 C21.08154305 -0.2396927 23.22382368 -0.26687538 25.3659668 -0.30175781 C54.46607906 -0.76334112 54.46607906 -0.76334112 65.28125 8.21875 C72.49386994 15.69364702 74.31602233 22.21423189 74.2109375 32.41796875 C73.73514012 40.4977132 71.0917584 46.58198446 65 52 C62.71773077 53.54901004 60.47640394 54.76179803 58 56 C60.4932769 57.6621846 62.44739205 58.61570556 65.1875 59.6875 C74.31749706 63.71063692 80.40713231 70.55460903 84.1015625 79.73828125 C86.50014421 88.44617571 86.32186521 98.39968139 82.5 106.625 C76.92884134 116.09596971 69.39589918 120.75379664 59 124 C52.65062827 125.19605181 46.38710583 125.12786407 39.94140625 125.09765625 C38.22497169 125.09553383 38.22497169 125.09553383 36.47386169 125.09336853 C32.83671399 125.08779301 29.19962895 125.07524498 25.5625 125.0625 C23.0891936 125.05748184 20.61588623 125.05291948 18.14257812 125.04882812 C12.09503088 125.0378316 6.04751992 125.02111788 0 125 C0 124.34 0 123.68 0 123 C1.953125 122.64192708 3.90625 122.28385417 5.859375 121.92578125 C9.09197868 120.52773915 10.14516207 119.01949598 12 116 C12.59897046 112.53489745 12.55672161 109.10723289 12.53344727 105.59765625 C12.54206284 104.55157196 12.55067841 103.50548767 12.55955505 102.42770386 C12.58224433 98.97238371 12.57547071 95.51787256 12.56640625 92.0625 C12.57164025 89.66023517 12.5779159 87.25797241 12.58518982 84.85571289 C12.59559936 79.82200446 12.59102394 74.78857863 12.57641602 69.75488281 C12.55922212 63.30157561 12.58272921 56.84915823 12.61790562 50.39595032 C12.63985568 45.43569021 12.63844393 40.47564383 12.6301403 35.51535034 C12.62931959 33.13588484 12.63620579 30.75640384 12.65091133 28.37698364 C12.66831337 25.05154544 12.65384935 21.7277169 12.63110352 18.40234375 C12.64279572 17.41829559 12.65448792 16.43424744 12.66653442 15.42037964 C12.6015242 10.75356145 12.53602475 8.68685786 9.58677673 4.90771484 C7.33682588 3.24840479 5.87906127 2.26803282 3.1875 1.6875 C1.6096875 1.3471875 1.6096875 1.3471875 0 1 C0 0.67 0 0.34 0 0 Z M25 5 C25 42.62 25 80.24 25 119 C47.45608376 120.15129935 47.45608376 120.15129935 66 110 C71.81615187 102.6259503 72.99952528 93.08210627 72 84 C70.46155685 77.74643648 68.26851331 71.05179386 63 67 C52.2381022 60.63790942 43.40149537 58.66432043 31 59 C31 58.34 31 57.68 31 57 C32.299375 57.061875 33.59875 57.12375 34.9375 57.1875 C43.25316358 57.13536418 49.28623166 54.60303418 55.33984375 48.8984375 C60.69688157 42.77250719 61.36572946 34.6870328 61.28125 26.8515625 C60.70898237 21.04940458 58.3491751 16.68646888 54.75 12.1875 C45.17233401 4.56890205 37.76175886 5 25 5 Z " fill="#FE3535" transform="translate(729,218)"/>
<path d="M0 0 C7.91560241 3.7620972 13.98913153 10.92282502 20.07421875 17.10546875 C21.96758092 18.96810699 23.92214068 20.70834555 25.9375 22.4375 C28.92801716 25.00665271 31.73116684 27.69317256 34.5 30.5 C37.2485599 33.28621141 40.02859791 35.95308392 43 38.5 C45.97140209 41.04691608 48.7514401 43.71378859 51.5 46.5 C54.22829407 49.26560408 56.98516834 51.91287031 59.9375 54.4375 C64.02918541 57.94349685 67.76966883 61.75461891 71.5546875 65.5859375 C74.28476873 68.28112952 77.13503284 70.77961222 80.05078125 73.26953125 C82.9162443 75.81341929 85.57338554 78.54939805 88.23828125 81.30078125 C90.09309306 83.19089136 90.09309306 83.19089136 93 85 C93 85.66 93 86.32 93 87 C93.66 87 94.32 87 95 87 C94.98512476 77.17692443 94.94352984 67.3543591 94.86790943 57.53155231 C94.83363234 52.97026824 94.80852836 48.40931935 94.80444336 43.84790039 C94.8001619 39.44500911 94.77171246 35.04287403 94.72656822 30.64021873 C94.71358824 28.96137078 94.70928734 27.28243236 94.71384621 25.60354042 C94.71874902 23.24959505 94.69267876 20.8978626 94.65942383 18.54418945 C94.66804947 17.8515097 94.67667511 17.15882996 94.68556213 16.44515991 C94.59470416 12.60371715 94.0717561 11.08657258 91.58500671 8.08634949 C89.30614723 6.24709031 87.98968417 5.29189266 85.1875 4.6875 C84.135625 4.460625 83.08375 4.23375 82 4 C82 3.67 82 3.34 82 3 C92.89 3 103.78 3 115 3 C115 3.33 115 3.66 115 4 C114.37351562 4.18175781 113.74703125 4.36351562 113.1015625 4.55078125 C112.28429688 4.80214844 111.46703125 5.05351562 110.625 5.3125 C109.81289062 5.55613281 109.00078125 5.79976562 108.1640625 6.05078125 C105.66815371 6.91368185 105.66815371 6.91368185 104 10 C103.7059904 12.00808745 103.7059904 12.00808745 103.75949097 14.233078 C103.75674164 15.09544571 103.75399231 15.95781342 103.75115967 16.84631348 C103.75835022 17.78930298 103.76554077 18.73229248 103.77294922 19.70385742 C103.77265717 20.6991597 103.77236511 21.69446198 103.77206421 22.71992493 C103.77345939 26.01519438 103.78902962 29.31023872 103.8046875 32.60546875 C103.80841696 34.88804501 103.81126425 37.17062286 103.81326294 39.45320129 C103.82090469 45.46528532 103.8405579 51.47727295 103.8626709 57.48931885 C103.88311762 63.62242326 103.89226215 69.75554322 103.90234375 75.88867188 C103.92380323 87.92582364 103.95794576 99.96290381 104 112 C100.46352562 110.65634551 98.14412034 109.50733662 95.51171875 106.76953125 C94.89208252 106.1350708 94.27244629 105.50061035 93.6340332 104.84692383 C92.99167725 104.17556396 92.34932129 103.5042041 91.6875 102.8125 C90.34300914 101.43567799 88.99667809 100.06065034 87.6484375 98.6875 C87.01131836 98.0378125 86.37419922 97.388125 85.71777344 96.71875 C83.26732579 94.26690926 80.66736727 92.03327045 78.01953125 89.80078125 C74.67353361 86.81721276 71.57056243 83.58999107 68.42114258 80.40161133 C65.69643765 77.65625492 62.94949972 75.00707476 60 72.5 C55.91204091 69.02523478 52.19327163 65.22049188 48.42626953 61.40673828 C45.07417354 58.02919139 41.61785444 54.85751104 37.9921875 51.7734375 C34.66090124 48.80793954 31.58257176 45.58970893 28.44921875 42.41796875 C25.76222866 39.76526243 22.97569392 37.28664209 20.08203125 34.86328125 C18.10634858 33.09517499 16.24048513 31.26174624 14.36987305 29.38354492 C13.42352242 28.43423347 13.42352242 28.43423347 12.45805359 27.46574402 C11.9768959 26.98204849 11.49573822 26.49835297 11 26 C10.97684877 35.98773616 10.95907068 45.97546595 10.94818783 55.96322346 C10.94296511 60.60073607 10.93587849 65.23823036 10.92456055 69.87573242 C10.91371004 74.34960803 10.90771855 78.82346599 10.90512276 83.29735374 C10.90327242 85.00581325 10.89965929 86.71427177 10.89426994 88.42272377 C10.88703084 90.81219205 10.88601028 93.201587 10.88647461 95.59106445 C10.88287933 96.30028549 10.87928406 97.00950653 10.87557983 97.74021912 C10.88198584 100.77863698 11.03058633 103.09175899 12 106 C15.63 106.66 19.26 107.32 23 108 C23 108.66 23 109.32 23 110 C11.78 110 0.56 110 -11 110 C-11 109.34 -11 108.68 -11 108 C-6.05 107.01 -6.05 107.01 -1 106 C-0.07484864 103.22454591 0.12373984 101.59040463 0.12025452 98.72895813 C0.12162918 97.85817627 0.12300385 96.98739441 0.12442017 96.09022522 C0.12082489 95.13788498 0.11722961 94.18554474 0.11352539 93.2043457 C0.11367142 92.19928986 0.11381744 91.19423401 0.1139679 90.15872192 C0.11327029 86.83105321 0.10548494 83.50344021 0.09765625 80.17578125 C0.09579153 77.8707838 0.09436788 75.56578595 0.09336853 73.26078796 C0.08954759 67.18955392 0.07972089 61.11834374 0.06866455 55.04711914 C0.05844135 48.85368167 0.05386896 42.66024035 0.04882812 36.46679688 C0.03809827 24.31118742 0.0210269 12.15559569 0 0 Z " fill="#FD3838" transform="translate(1035,233)"/>
<path d="M0 0 C5.25607499 1.4748685 8.16259057 4.85952208 11.8125 8.6875 C13.06060588 9.96799477 14.31058949 11.24666217 15.5625 12.5234375 C16.15804688 13.13155273 16.75359375 13.73966797 17.3671875 14.36621094 C19.84216076 16.84266445 22.47429809 19.10297727 25.14453125 21.36328125 C28.17099557 24.03294135 30.95209943 26.94460678 33.78515625 29.81640625 C35.77659461 31.77974671 37.81302578 33.62079669 39.9375 35.4375 C44.03058303 38.9446944 47.77224704 42.75725158 51.55859375 46.58984375 C54.27202727 49.26854532 57.10777023 51.74608118 60.00390625 54.22265625 C63.06666727 56.94977223 65.90223493 59.89404637 68.78125 62.8125 C71.40512618 65.39942018 74.16391634 67.78383272 76.9609375 70.1796875 C80.02208725 72.91243805 82.86869575 75.84620344 85.7265625 78.7890625 C87.48936422 80.50340232 89.25107468 82.07542256 91.14208984 83.63818359 C92.0852002 84.41758301 93.02831055 85.19698242 94 86 C94.09272126 76.30763258 94.16377561 66.61541807 94.20724869 56.92270374 C94.22811471 52.42186112 94.25641412 47.92132216 94.30175781 43.4206543 C94.34525108 39.07641812 94.36914452 34.73247384 94.37950897 30.38803673 C94.38689413 28.73142591 94.4013158 27.07483089 94.42292023 25.4183445 C94.45200152 23.09601065 94.45595419 20.77487951 94.45410156 18.45239258 C94.46848267 17.76906357 94.48286377 17.08573456 94.49768066 16.38169861 C94.45706472 11.66957994 93.32593868 9.30489546 90 6 C87.91365324 5.00243506 87.91365324 5.00243506 85.75 4.6875 C83.89375 4.3471875 83.89375 4.3471875 82 4 C82 3.67 82 3.34 82 3 C92.89 3 103.78 3 115 3 C115 3.33 115 3.66 115 4 C114.37351562 4.18175781 113.74703125 4.36351562 113.1015625 4.55078125 C112.28429687 4.80214844 111.46703125 5.05351562 110.625 5.3125 C109.81289063 5.55613281 109.00078125 5.79976562 108.1640625 6.05078125 C105.66815371 6.91368185 105.66815371 6.91368185 104 10 C103.70589838 12.02486365 103.70589838 12.02486365 103.75949097 14.27104187 C103.75674164 15.14182373 103.75399231 16.01260559 103.75115967 16.90977478 C103.75835022 17.86211502 103.76554077 18.81445526 103.77294922 19.7956543 C103.77265717 20.80071014 103.77236511 21.80576599 103.77206421 22.84127808 C103.77345945 26.16901227 103.78902995 29.49652359 103.8046875 32.82421875 C103.80841693 35.12921527 103.81126423 37.43421337 103.81326294 39.73921204 C103.82090486 45.81047938 103.8405582 51.88165127 103.8626709 57.95288086 C103.88311727 64.14630848 103.89226207 70.3397515 103.90234375 76.53320312 C103.92380351 88.68884406 103.95794624 100.8444141 104 113 C102.71065041 112.04187875 101.42251065 111.08212927 100.1348877 110.12168884 C99.41742622 109.58740233 98.69996475 109.05311583 97.96076202 108.50263882 C95.89268775 106.91776078 94.03214884 105.24931477 92.21875 103.37890625 C91.30379761 102.44655151 91.30379761 102.44655151 90.37036133 101.49536133 C89.75314209 100.85751709 89.13592285 100.21967285 88.5 99.5625 C84.13840881 95.12383565 79.77979419 90.81433628 75.01953125 86.80078125 C71.67353361 83.81721276 68.57056243 80.58999107 65.42114258 77.40161133 C62.69643765 74.65625492 59.94949972 72.00707476 57 69.5 C52.91204091 66.02523478 49.19327163 62.22049188 45.42626953 58.40673828 C42.07417354 55.02919139 38.61785444 51.85751104 34.9921875 48.7734375 C31.66501058 45.81159765 28.5903361 42.59760178 25.4609375 39.4296875 C22.67335608 36.67750394 19.77743169 34.10088896 16.7890625 31.5703125 C14.76867578 29.79695996 12.89358619 27.90729719 11 26 C10.88417692 35.97034519 10.79532072 45.9405305 10.74093914 55.91141129 C10.71483918 60.54128014 10.67943429 65.17068892 10.62280273 69.80029297 C10.56849651 74.2677335 10.53858247 78.73473139 10.52561378 83.2024765 C10.51637133 84.90738647 10.49832268 86.61227207 10.47134972 88.31699371 C10.4350759 90.70437559 10.43005366 93.08992618 10.43237305 95.47753906 C10.41439667 96.18316483 10.39642029 96.88879059 10.37789917 97.61579895 C10.41634926 101.27092343 10.74602369 102.732084 13.29719543 105.42327881 C16.54984275 107.32075894 19.27258343 107.7076536 23 108 C23 108.66 23 109.32 23 110 C11.78 110 0.56 110 -11 110 C-11 109.34 -11 108.68 -11 108 C-10.38511719 107.91363281 -9.77023437 107.82726562 -9.13671875 107.73828125 C-8.32847656 107.59777344 -7.52023437 107.45726562 -6.6875 107.3125 C-5.88699219 107.18488281 -5.08648437 107.05726563 -4.26171875 106.92578125 C-1.02444682 105.6006803 -0.4613435 104.17103467 1 101 C1.42142257 98.03997164 1.38966608 95.11550397 1.35644531 92.12988281 C1.35848969 91.24628082 1.36053406 90.36267883 1.36264038 89.45230103 C1.36564442 86.53569736 1.34717572 83.6196614 1.328125 80.703125 C1.32506531 78.66917053 1.32319079 76.63521396 1.32244873 74.60125732 C1.31784727 70.33760558 1.30343198 66.07414287 1.28125 61.81054688 C1.25303995 56.36235456 1.24204499 50.91431142 1.2375679 45.46605301 C1.23239276 40.25339139 1.21785572 35.04076671 1.203125 29.828125 C1.20124428 28.84097755 1.19936356 27.85383011 1.19742584 26.8367691 C1.19049771 24.02036123 1.17683328 21.20406635 1.16113281 18.38769531 C1.16001495 17.56764008 1.15889709 16.74758484 1.15774536 15.90267944 C1.11841876 10.53588203 0.66683256 5.32627003 0 0 Z " fill="#FE3535" transform="translate(492,233)"/>
<path d="M0 0 C9.12850423 -0.09333752 18.25684017 -0.16408423 27.38572025 -0.20724869 C31.62621674 -0.22798219 35.86638296 -0.25603356 40.10668945 -0.30175781 C44.21107083 -0.3457313 48.3151378 -0.36924364 52.41973686 -0.37950897 C53.97318905 -0.38680925 55.52662718 -0.40105995 57.0799427 -0.42292023 C73.93496979 -0.65034553 90.08232916 2.24000521 102.8125 14.25 C115.45724598 27.70907667 117.57253087 42.27924532 117.08447266 59.9921875 C116.56759249 72.27780167 111.75127067 83.0554631 103.2578125 91.96875 C88.7909283 104.98393993 71.61634852 107.33035206 52.9296875 107.1953125 C51.39698472 107.19157458 49.86427953 107.1887313 48.33157349 107.18673706 C44.33017179 107.17916183 40.32891916 107.15956714 36.32757568 107.1373291 C32.23142512 107.11673775 28.13525008 107.10770714 24.0390625 107.09765625 C16.02597385 107.07631441 8.01300556 107.04225389 0 107 C0 106.34 0 105.68 0 105 C1.98567708 104.609375 3.97135417 104.21875 5.95703125 103.828125 C8.78775937 102.6806788 9.4978947 101.68752387 11 99 C11.29610266 95.98552642 11.42021459 93.17841174 11.40405273 90.1640625 C11.41434761 88.82683136 11.41434761 88.82683136 11.42485046 87.46258545 C11.44314796 84.51656151 11.43927712 81.57106855 11.43359375 78.625 C11.43815379 76.57763495 11.44345883 74.53027144 11.44947815 72.48291016 C11.4584148 68.19231954 11.45597938 63.90191502 11.44604492 59.61132812 C11.43454846 54.10971303 11.45477449 48.6087391 11.48396206 43.10720825 C11.50229586 38.8795971 11.50203733 34.65214044 11.49632454 30.42449951 C11.49617101 28.39588521 11.5022412 26.36726064 11.51461601 24.33868408 C11.52947268 21.50402414 11.51888861 18.67055969 11.50170898 15.8359375 C11.51137695 14.99633484 11.52104492 14.15673218 11.53100586 13.29168701 C11.48535094 9.69923131 11.34482258 7.47475874 9.20301819 4.52587891 C6.29764697 2.51352845 3.42060135 1.78936954 0 1 C0 0.67 0 0.34 0 0 Z M24 5 C24 37.01 24 69.02 24 102 C61.35177518 104.48798291 61.35177518 104.48798291 92.3125 89.25 C96.34439755 84.97423768 98.79433522 80.41390445 101 75 C101.47953125 73.93265625 101.47953125 73.93265625 101.96875 72.84375 C106.57302075 60.73622323 105.54882314 42.83237453 100.77734375 30.95703125 C95.72404278 20.1092785 89.72905438 13.36452719 79 8 C61.40287231 3.42598345 61.40287231 3.42598345 24 5 Z " fill="#FE3534" transform="translate(1167,236)"/>
<path d="M0 0 C0 7.26 0 14.52 0 22 C-0.66 22 -1.32 22 -2 22 C-2.2475 20.7625 -2.495 19.525 -2.75 18.25 C-3.6913355 14.47798184 -4.82641565 12.40423057 -8 10 C-11.86301676 8.71232775 -15.57489773 8.76607254 -19.60546875 8.68359375 C-20.34945923 8.66494263 -21.09344971 8.6462915 -21.85998535 8.6270752 C-24.63570427 8.55884413 -27.41161612 8.49865289 -30.1875 8.4375 C-39.4996875 8.2209375 -39.4996875 8.2209375 -49 8 C-49 26.48 -49 44.96 -49 64 C-43.823125 63.896875 -38.64625 63.79375 -33.3125 63.6875 C-30.87484253 63.65015747 -30.87484253 63.65015747 -28.38793945 63.61206055 C-26.45760864 63.56239136 -26.45760864 63.56239136 -24.48828125 63.51171875 C-23.17384033 63.48553467 -21.85939941 63.45935059 -20.50512695 63.43237305 C-16.84671888 62.98109209 -14.90809309 62.22047856 -12 60 C-10.99065319 57.99411525 -10.99065319 57.99411525 -10.6875 55.8125 C-10.460625 54.554375 -10.23375 53.29625 -10 52 C-9.34 52 -8.68 52 -8 52 C-8 61.24 -8 70.48 -8 80 C-8.66 80 -9.32 80 -10 80 C-10.2475 78.906875 -10.495 77.81375 -10.75 76.6875 C-12.0944251 72.72144596 -12.44559835 71.92958403 -16 70 C-18.60841294 69.67623358 -20.99852537 69.51183665 -23.609375 69.48828125 C-24.25406738 69.47164429 -24.89875977 69.45500732 -25.56298828 69.43786621 C-27.95833113 69.38027773 -30.35422601 69.34786662 -32.75 69.3125 C-38.1125 69.209375 -43.475 69.10625 -49 69 C-49 86.49 -49 103.98 -49 122 C-43.43125 121.9175 -37.8625 121.835 -32.125 121.75 C-30.38879395 121.73420898 -28.65258789 121.71841797 -26.86376953 121.70214844 C-16.7104766 121.52875458 -7.65645607 121.06972058 -0.1875 113.375 C3.30982711 108.98262235 5.7269675 104.11170443 8 99 C8.66 99 9.32 99 10 99 C7.99466523 109.02667383 3.59032185 118.42580841 0 128 C-24.42 128 -48.84 128 -74 128 C-74 127.34 -74 126.68 -74 126 C-72.046875 125.64192708 -70.09375 125.28385417 -68.140625 124.92578125 C-64.90802132 123.52773915 -63.85483793 122.01949598 -62 119 C-61.40102954 115.53489745 -61.44327839 112.10723289 -61.46655273 108.59765625 C-61.45793716 107.55157196 -61.44932159 106.50548767 -61.44044495 105.42770386 C-61.41775567 101.97238371 -61.42452929 98.51787256 -61.43359375 95.0625 C-61.42835975 92.66023517 -61.4220841 90.25797241 -61.41481018 87.85571289 C-61.40440064 82.82200446 -61.40897606 77.78857863 -61.42358398 72.75488281 C-61.44077788 66.30157561 -61.41727079 59.84915823 -61.38209438 53.39595032 C-61.36014432 48.43569021 -61.36155607 43.47564383 -61.3698597 38.51535034 C-61.37068041 36.13588484 -61.36379421 33.75640384 -61.34908867 31.37698364 C-61.33168663 28.05154544 -61.34615065 24.7277169 -61.36889648 21.40234375 C-61.35720428 20.41829559 -61.34551208 19.43424744 -61.33346558 18.42037964 C-61.3984758 13.75356145 -61.46397525 11.68685786 -64.41322327 7.90771484 C-66.66317412 6.24840479 -68.12093873 5.26803282 -70.8125 4.6875 C-72.3903125 4.3471875 -72.3903125 4.3471875 -74 4 C-74 3.67 -74 3.34 -74 3 C-73.31476761 2.99191315 -72.62953522 2.98382629 -71.92353821 2.97549438 C-65.4081902 2.89696332 -58.89302692 2.80950642 -52.37792683 2.71247292 C-49.02988915 2.66291124 -45.68192128 2.61757096 -42.33374023 2.578125 C-38.4684154 2.53201488 -34.60341196 2.4740993 -30.73828125 2.4140625 C-29.55857254 2.40251129 -28.37886383 2.39096008 -27.16340637 2.37905884 C-20.22475118 2.2581425 -13.58890886 1.62317496 -6.75138855 0.42294312 C-4 0 -4 0 0 0 Z " fill="#FE3737" transform="translate(239,215)"/>
<path d="M0 0 C0 6.6 0 13.2 0 20 C-0.66 20 -1.32 20 -2 20 C-2.28875 18.906875 -2.5775 17.81375 -2.875 16.6875 C-3.81893204 12.95986155 -3.81893204 12.95986155 -6 10 C-9.92741721 8.69086093 -13.72569432 8.76527267 -17.82421875 8.68359375 C-18.58786743 8.66494263 -19.35151611 8.6462915 -20.13830566 8.6270752 C-22.98792065 8.55883363 -25.83772399 8.49864909 -28.6875 8.4375 C-35.060625 8.293125 -41.43375 8.14875 -48 8 C-48 22.85 -48 37.7 -48 53 C-42.43125 52.87625 -36.8625 52.7525 -31.125 52.625 C-29.36816895 52.59100098 -27.61133789 52.55700195 -25.80126953 52.52197266 C-24.41176412 52.48677333 -23.0222767 52.45085281 -21.6328125 52.4140625 C-20.90892334 52.40270264 -20.18503418 52.39134277 -19.43920898 52.37963867 C-15.26365599 52.38496327 -15.26365599 52.38496327 -12 50 C-11.60235737 48.01178687 -11.26224651 46.01055661 -11 44 C-10.01 44 -9.02 44 -8 44 C-8 52.25 -8 60.5 -8 69 C-8.99 69 -9.98 69 -11 69 C-11.1546875 67.329375 -11.1546875 67.329375 -11.3125 65.625 C-11.539375 64.42875 -11.76625 63.2325 -12 62 C-15.60593738 59.59604175 -18.33626142 59.65397234 -22.51171875 59.5859375 C-23.15741821 59.56829346 -23.80311768 59.55064941 -24.46838379 59.5324707 C-26.87450511 59.46952683 -29.28103928 59.423255 -31.6875 59.375 C-39.7621875 59.189375 -39.7621875 59.189375 -48 59 C-48 73.85 -48 88.7 -48 104 C-42.06 103.9175 -36.12 103.835 -30 103.75 C-27.21175781 103.72631348 -27.21175781 103.72631348 -24.3671875 103.70214844 C-22.86976105 103.67274374 -21.37236167 103.64191176 -19.875 103.609375 C-19.11703125 103.60824707 -18.3590625 103.60711914 -17.578125 103.60595703 C-10.73189331 103.42509653 -5.67760552 101.16758542 -0.375 96.875 C2.43571342 93.47255744 4.53481725 89.86715088 6.66796875 86.01171875 C7.10753906 85.34785156 7.54710937 84.68398438 8 84 C8.66 84 9.32 84 10 84 C7.22319729 92.98377349 3.62851434 101.18789375 0 110 C-24.09 110 -48.18 110 -73 110 C-73 109.34 -73 108.68 -73 108 C-72.38511719 107.90203125 -71.77023437 107.8040625 -71.13671875 107.703125 C-70.32847656 107.55359375 -69.52023437 107.4040625 -68.6875 107.25 C-67.48673828 107.04117188 -67.48673828 107.04117188 -66.26171875 106.828125 C-63.23888117 105.72131746 -62.5639146 104.8329665 -61 102 C-60.71916625 98.97877498 -60.61047839 96.16757142 -60.64355469 93.14819336 C-60.64151031 92.25509964 -60.63946594 91.36200592 -60.63735962 90.44184875 C-60.63435249 87.49097187 -60.65282618 84.54065419 -60.671875 81.58984375 C-60.67493274 79.54008625 -60.67680875 77.49032667 -60.67755127 75.44056702 C-60.68215385 71.14576256 -60.69657879 66.85114566 -60.71875 62.55639648 C-60.74705005 57.04592932 -60.75796343 51.5356098 -60.7624321 46.02507687 C-60.76658499 41.79324359 -60.77640112 37.56144027 -60.78830719 33.32962227 C-60.79401168 31.29740196 -60.79876979 29.26517878 -60.80257416 27.23295403 C-60.80943443 24.39605504 -60.82306545 21.55927362 -60.83886719 18.72241211 C-60.83998505 17.87921417 -60.84110291 17.03601624 -60.84225464 16.16726685 C-60.86669966 12.86044165 -60.94703241 10.15890277 -62 7 C-64.56042066 5.96961044 -64.56042066 5.96961044 -67.5625 5.3125 C-68.57441406 5.06113281 -69.58632813 4.80976563 -70.62890625 4.55078125 C-71.80259766 4.27814453 -71.80259766 4.27814453 -73 4 C-73 3.67 -73 3.34 -73 3 C-72.27052155 2.99191315 -71.54104309 2.98382629 -70.78945923 2.97549438 C-63.87584839 2.89717889 -56.96240388 2.80978043 -50.04903603 2.71247292 C-46.49578287 2.66277243 -42.94255573 2.61644291 -39.38916016 2.578125 C-35.29311404 2.53380147 -31.19740629 2.47426281 -27.1015625 2.4140625 C-25.8407486 2.40251129 -24.57993469 2.39096008 -23.28091431 2.37905884 C-16.99292383 2.2749843 -11.11301067 1.87798033 -4.98471069 0.42294312 C-3 0 -3 0 0 0 Z " fill="#FD3A3A" transform="translate(459,233)"/>
<path d="M0 0 C11.88 0 23.76 0 36 0 C35.01 0.66 34.02 1.32 33 2 C30.62580082 3.54047777 30.62580082 3.54047777 29 6 C29.32226819 11.5967243 30.60269847 16.22014308 32.8515625 21.35546875 C33.28828278 22.38770569 33.28828278 22.38770569 33.73382568 23.4407959 C34.68871974 25.69356945 35.65694811 27.94035345 36.625 30.1875 C37.98878772 33.39396751 39.34562588 36.60336606 40.703125 39.8125 C41.05349823 40.63803879 41.40387146 41.46357758 41.76486206 42.31413269 C46.09762013 52.54419088 50.23259629 62.85445332 54.36895752 73.16513062 C55.29349049 75.46895408 56.22084246 77.77162691 57.1484375 80.07421875 C57.42379333 80.76414917 57.69914917 81.45407959 57.98284912 82.16491699 C59.10300484 85.31830332 59.10300484 85.31830332 61 88 C70.02181189 67.34455231 78.84248236 46.60901291 87.55276489 25.82035828 C87.83135345 25.15591202 88.10994202 24.49146576 88.39697266 23.80688477 C88.79504372 22.8548542 88.79504372 22.8548542 89.20115662 21.8835907 C89.74466836 20.6020458 90.29920967 19.32513505 90.86341858 18.05256653 C92.49955839 14.35297548 93.35455779 11.62757278 93.1875 7.5625 C93.16042969 6.69753906 93.13335937 5.83257812 93.10546875 4.94140625 C93.05326172 3.98041016 93.05326172 3.98041016 93 3 C90.69 2.34 88.38 1.68 86 1 C86 0.67 86 0.34 86 0 C97.22 0 108.44 0 120 0 C116 2 116 2 114.140625 2.7265625 C108.84709028 5.2420852 106.66664268 8.98641739 104.24609375 14.1328125 C103.90422531 14.83823181 103.56235687 15.54365112 103.21012878 16.27044678 C102.12918485 18.50858502 101.06374837 20.75364563 100 23 C99.32455686 24.41055896 98.64862136 25.82088227 97.97216797 27.23095703 C95.90097338 31.56221895 93.8549576 35.90512924 91.8125 40.25 C91.07041963 41.82610262 90.32831308 43.40219291 89.58618164 44.97827148 C87.73528385 48.91134462 85.88766759 52.84594902 84.04138184 56.78118896 C83.05625142 58.88014841 82.06984067 60.97850069 81.08300781 63.07666016 C69.40282497 85.92631809 69.40282497 85.92631809 61 110 C60.34 110 59.68 110 59 110 C51.43484653 93.46951686 43.87255718 76.93776115 36.3522644 60.3868103 C35.43598502 58.37166815 34.51808733 56.35726981 33.59985352 54.34301758 C30.6841111 47.94197076 27.78610287 41.53413286 24.93598938 35.10354614 C23.58189474 32.0510613 22.21941585 29.00235297 20.85623169 25.95391846 C20.20950306 24.50131845 19.56688259 23.04688141 18.92868042 21.59051514 C18.04351231 19.57119508 17.14438529 17.55863202 16.2421875 15.546875 C15.48204346 13.82742676 15.48204346 13.82742676 14.70654297 12.07324219 C12.06853927 7.32257115 8.91880739 3.87215831 3.6875 2.1875 C2.470625 1.795625 1.25375 1.40375 0 1 C0 0.67 0 0.34 0 0 Z " fill="#FE3535" transform="translate(257,236)"/>
<path d="M0 0 C0 6.6 0 13.2 0 20 C-0.99 20 -1.98 20 -3 20 C-3.09796875 19.37351563 -3.1959375 18.74703125 -3.296875 18.1015625 C-3.44640625 17.28429687 -3.5959375 16.46703125 -3.75 15.625 C-3.95882812 14.40683594 -3.95882812 14.40683594 -4.171875 13.1640625 C-4.79786101 10.87510303 -4.79786101 10.87510303 -6.79388428 9.88467407 C-9.07560623 8.96968116 -10.68176437 8.72756144 -13.12597656 8.68115234 C-13.93760254 8.66109131 -14.74922852 8.64103027 -15.58544922 8.62036133 C-16.42865723 8.60900146 -17.27186523 8.5976416 -18.140625 8.5859375 C-18.9229248 8.56829346 -19.70522461 8.55064941 -20.51123047 8.5324707 C-23.42394739 8.46956775 -26.3370038 8.4232678 -29.25 8.375 C-35.7675 8.25125 -42.285 8.1275 -49 8 C-49 23.18 -49 38.36 -49 54 C-43.6375 53.896875 -38.275 53.79375 -32.75 53.6875 C-31.06358398 53.66260498 -29.37716797 53.63770996 -27.63964844 53.61206055 C-26.29619586 53.57976146 -24.95276854 53.54638643 -23.609375 53.51171875 C-22.91730957 53.50547485 -22.22524414 53.49923096 -21.51220703 53.49279785 C-17.44581411 53.37168687 -14.84836151 53.02229036 -12 50 C-11.19053578 46.89802603 -11.19053578 46.89802603 -11 44 C-10.34 44 -9.68 44 -9 44 C-9 52.25 -9 60.5 -9 69 C-9.66 69 -10.32 69 -11 69 C-11.1546875 67.329375 -11.1546875 67.329375 -11.3125 65.625 C-11.539375 64.42875 -11.76625 63.2325 -12 62 C-15.60593738 59.59604175 -18.33626142 59.65397234 -22.51171875 59.5859375 C-23.15741821 59.56829346 -23.80311768 59.55064941 -24.46838379 59.5324707 C-26.87450511 59.46952683 -29.28103928 59.423255 -31.6875 59.375 C-39.7621875 59.189375 -39.7621875 59.189375 -48 59 C-48 73.85 -48 88.7 -48 104 C-42.26625 103.938125 -36.5325 103.87625 -30.625 103.8125 C-28.83658691 103.80581299 -27.04817383 103.79912598 -25.20556641 103.79223633 C-15.66918662 103.66145491 -7.45969054 103.13049909 -0.14550781 96.25732422 C3.26343243 92.59769441 5.66605315 88.39859214 8 84 C8.66 84 9.32 84 10 84 C7.06363793 92.80908622 3.44858236 101.3785441 0 110 C-24.09 110 -48.18 110 -73 110 C-73 109.34 -73 108.68 -73 108 C-72.38511719 107.90203125 -71.77023437 107.8040625 -71.13671875 107.703125 C-70.32847656 107.55359375 -69.52023437 107.4040625 -68.6875 107.25 C-67.48673828 107.04117188 -67.48673828 107.04117188 -66.26171875 106.828125 C-63.23988789 105.72168607 -62.56634743 104.83015035 -61 102 C-60.70389734 98.98552642 -60.57978541 96.17841174 -60.59594727 93.1640625 C-60.58565239 91.82683136 -60.58565239 91.82683136 -60.57514954 90.46258545 C-60.55685204 87.51656151 -60.56072288 84.57106855 -60.56640625 81.625 C-60.56184621 79.57763495 -60.55654117 77.53027144 -60.55052185 75.48291016 C-60.5415852 71.19231954 -60.54402062 66.90191502 -60.55395508 62.61132812 C-60.56545154 57.10971303 -60.54522551 51.6087391 -60.51603794 46.10720825 C-60.49770414 41.8795971 -60.49796267 37.65214044 -60.50367546 33.42449951 C-60.50382899 31.39588521 -60.4977588 29.36726064 -60.48538399 27.33868408 C-60.47052732 24.50402414 -60.48111139 21.67055969 -60.49829102 18.8359375 C-60.48862305 17.99633484 -60.47895508 17.15673218 -60.46899414 16.29168701 C-60.51560752 12.62381308 -60.64551481 10.46711696 -62.89756775 7.49951172 C-65.07546818 5.94617405 -66.64156126 5.27168775 -69.25 4.75 C-70.4875 4.5025 -71.725 4.255 -73 4 C-73 3.67 -73 3.34 -73 3 C-72.27052155 2.99191315 -71.54104309 2.98382629 -70.78945923 2.97549438 C-63.87584839 2.89717889 -56.96240388 2.80978043 -50.04903603 2.71247292 C-46.49578287 2.66277243 -42.94255573 2.61644291 -39.38916016 2.578125 C-35.29311404 2.53380147 -31.19740629 2.47426281 -27.1015625 2.4140625 C-25.8407486 2.40251129 -24.57993469 2.39096008 -23.28091431 2.37905884 C-16.99292383 2.2749843 -11.11301067 1.87798033 -4.98471069 0.42294312 C-3 0 -3 0 0 0 Z " fill="#FE3636" transform="translate(1002,233)"/>
<path d="M0 0 C5.32125 -0.103125 10.6425 -0.20625 16.125 -0.3125 C17.79320801 -0.35802002 19.46141602 -0.40354004 21.18017578 -0.45043945 C22.5185343 -0.46505725 23.85691523 -0.47779487 25.1953125 -0.48828125 C26.21806274 -0.526651 26.21806274 -0.526651 27.26147461 -0.5657959 C31.05229418 -0.56921845 33.50659323 0.01005672 36.46435547 2.29223633 C39 5 39 5 39.375 8.8125 C39.189375 10.3903125 39.189375 10.3903125 39 12 C39.66 12 40.32 12 41 12 C41.71978137 16.00052952 42.43155655 20.00239624 43.13623047 24.00561523 C43.37659457 25.36472099 43.61906945 26.72345533 43.86376953 28.08178711 C44.21693847 30.04439734 44.56166482 32.00852075 44.90625 33.97265625 C45.11572266 35.15093994 45.32519531 36.32922363 45.54101562 37.54321289 C46.00939198 41.07073463 46.07937637 44.44592304 46 48 C39.26949114 52.01241874 34.87552271 53.15278141 26.953125 53.09765625 C26.26911621 53.09664917 25.58510742 53.09564209 24.88037109 53.09460449 C22.33689689 53.0893913 19.79344668 53.07543006 17.25 53.0625 C8.71125 53.0315625 8.71125 53.0315625 0 53 C0 35.51 0 18.02 0 0 Z " fill="#F1F0F0" transform="translate(190,284)"/>
<path d="M0 0 C10.43176148 0 10.43176148 0 15.2734375 4.83203125 C24.16429985 15.99589687 22.15733932 32.71048857 22.5625 46.1875 C22.59376984 47.20925323 22.59376984 47.20925323 22.62567139 48.25164795 C22.92559723 58.20935946 23.10233741 68.1623883 23.125 78.125 C23.13188843 79.79405396 23.13188843 79.79405396 23.13891602 81.49682617 C23.13690186 82.53170166 23.1348877 83.56657715 23.1328125 84.6328125 C23.13168457 85.52887207 23.13055664 86.42493164 23.12939453 87.34814453 C22.98764986 90.25310793 22.47814122 93.13115269 22 96 C28.6 96 35.2 96 42 96 C42 96.33 42 96.66 42 97 C28.14 97 14.28 97 0 97 C0 64.99 0 32.98 0 0 Z " fill="#EDE1DB" transform="translate(1191,241)"/>
<path d="M0 0 C2.31 0.33 4.62 0.66 7 1 C9.80705727 1.0894785 12.58834396 1.13697546 15.39453125 1.12939453 C16.20360931 1.13114685 17.01268738 1.13289917 17.84628296 1.13470459 C20.50171092 1.13908009 23.15707144 1.13620032 25.8125 1.1328125 C27.66902682 1.13348677 29.52555356 1.13445783 31.38208008 1.13571167 C35.26547082 1.13718282 39.14883851 1.13505283 43.03222656 1.13037109 C47.99851823 1.12467417 52.96475584 1.12795629 57.93104553 1.13394356 C61.76241459 1.1375649 65.59377093 1.13640335 69.42514038 1.13381577 C71.25588996 1.13315085 73.08664071 1.13395963 74.91738892 1.13629532 C77.48011311 1.1388477 80.04275095 1.13494492 82.60546875 1.12939453 C83.35476654 1.13141876 84.10406433 1.13344299 84.87606812 1.13552856 C89.41875906 1.11739226 93.43934973 0.65152147 98 0 C98 6.6 98 13.2 98 20 C97.34 20 96.68 20 96 20 C95.83564453 19.06027344 95.83564453 19.06027344 95.66796875 18.1015625 C95.43013672 16.87566406 95.43013672 16.87566406 95.1875 15.625 C95.03667969 14.81289062 94.88585937 14.00078125 94.73046875 13.1640625 C94.12455058 10.64179359 94.12455058 10.64179359 91 9 C88.24781023 8.75926865 85.58782534 8.62717312 82.83203125 8.5859375 C82.03721848 8.56657135 81.2424057 8.5472052 80.42350769 8.5272522 C77.88661405 8.46750558 75.34967491 8.42109117 72.8125 8.375 C71.09177716 8.33681565 69.37107335 8.29776365 67.65039062 8.2578125 C63.43374835 8.16180821 59.2170166 8.07775924 55 8 C55.01486656 20.16993427 55.05642299 32.33945632 55.13209057 44.50917339 C55.1663866 50.1600596 55.19147466 55.8106747 55.19555664 61.46166992 C55.19983391 66.91488256 55.22824973 72.36748335 55.27343178 77.82050514 C55.28642498 79.90127817 55.29070804 81.98212436 55.28615379 84.06293297 C55.28126086 86.97711694 55.30728251 89.88950368 55.34057617 92.8034668 C55.32763771 94.09495636 55.32763771 94.09495636 55.31443787 95.41253662 C55.39696672 99.71945002 55.61381676 101.49289925 58.30293274 105.02400208 C61.56664934 107.41515387 64.00375411 107.76492671 68 108 C68 108.66 68 109.32 68 110 C55.79 110 43.58 110 31 110 C31 109.34 31 108.68 31 108 C33.97851562 107.4140625 33.97851562 107.4140625 36.95703125 106.828125 C39.79671591 105.67704823 40.49717083 104.70200187 42 102 C42.46108532 98.97574979 42.43744334 95.97165585 42.43237305 92.91699219 C42.4425647 91.99957245 42.45275635 91.08215271 42.46325684 90.13693237 C42.49343264 87.10685149 42.50265986 84.07708652 42.51171875 81.046875 C42.52856202 78.94507798 42.54671178 76.84329105 42.56611633 74.74151611 C42.61366058 69.21121373 42.64344142 63.68095227 42.66955566 58.1505127 C42.69933879 52.50650957 42.74587685 46.86264751 42.79101562 41.21875 C42.87709914 30.14590706 42.94442205 19.07303513 43 8 C37.94564912 8.04416275 32.89254634 8.11400429 27.83886719 8.20751953 C26.12021831 8.23572067 24.40143995 8.25693954 22.68261719 8.27099609 C20.20961253 8.29243833 17.73816325 8.33909156 15.265625 8.390625 C14.11540863 8.39246796 14.11540863 8.39246796 12.94195557 8.39434814 C9.46045768 8.48963698 7.37670205 8.72488387 4.53027344 10.80371094 C2.45811266 13.7777311 2.27431453 16.43391105 2 20 C1.34 20 0.68 20 0 20 C0 13.4 0 6.8 0 0 Z " fill="#FE3737" transform="translate(617,233)"/>
<path d="M0 0 C12.21 0 24.42 0 37 0 C37 0.33 37 0.66 37 1 C36.38511719 1.17015625 35.77023437 1.3403125 35.13671875 1.515625 C34.32847656 1.75796875 33.52023437 2.0003125 32.6875 2.25 C31.88699219 2.48203125 31.08648438 2.7140625 30.26171875 2.953125 C27.36140176 4.29558606 26.56182278 5.18610137 25 8 C24.54075791 10.99399912 24.56255187 13.96672637 24.56762695 16.99121094 C24.5574353 17.89887711 24.54724365 18.80654327 24.53674316 19.74171448 C24.50656938 22.73933042 24.49734046 25.73662703 24.48828125 28.734375 C24.47143783 30.81375189 24.45328805 32.89311858 24.43388367 34.97247314 C24.38634106 40.44359143 24.35655917 45.91466835 24.33044434 51.38592529 C24.30066038 56.96960622 24.2541226 62.55314457 24.20898438 68.13671875 C24.12290273 79.09107132 24.05557899 90.04545319 24 101 C28.94448242 100.95548968 33.88773084 100.88529057 38.83154297 100.79248047 C40.50917679 100.76446086 42.18693796 100.74315291 43.86474609 100.72900391 C58.85124389 100.93784698 58.85124389 100.93784698 71.85449219 94.3527832 C75.5588666 90.44796335 77.78305906 85.86021667 80 81 C80.66 81 81.32 81 82 81 C80.20137755 89.99311227 76.26490826 98.42961581 73 107 C48.91 107 24.82 107 0 107 C0 106.34 0 105.68 0 105 C1.953125 104.64192708 3.90625 104.28385417 5.859375 103.92578125 C9.02937372 102.55481465 10.14659882 100.91639463 12 98 C12.58160226 95.08151635 12.55719573 92.21855786 12.53344727 89.25 C12.54206284 88.37947998 12.55067841 87.50895996 12.55955505 86.61206055 C12.58221578 83.7410693 12.57547646 80.87105399 12.56640625 78 C12.57164152 76.00129913 12.57791764 74.00260074 12.58518982 72.00390625 C12.59559402 67.81758996 12.59103178 63.63161358 12.57641602 59.4453125 C12.55922187 54.0815532 12.58273135 48.71886447 12.61790562 43.35522461 C12.63986841 39.22876899 12.63844094 35.10257002 12.6301403 30.97607422 C12.6293203 28.99852321 12.63619314 27.02095344 12.65091133 25.04345703 C12.66833806 22.27830208 12.65383127 19.51507737 12.63110352 16.75 C12.64864182 15.52639771 12.64864182 15.52639771 12.66653442 14.27807617 C12.59505561 10.00243123 12.37334215 8.46242087 9.58677673 5.01098633 C7.31957444 3.24844039 5.94274731 2.28176903 3.1875 1.6875 C1.6096875 1.3471875 1.6096875 1.3471875 0 1 C0 0.67 0 0.34 0 0 Z " fill="#FE3333" transform="translate(833,236)"/>
<path d="M0 0 C0.66 0 1.32 0 2 0 C1.47731534 2.76276177 0.89130413 5.3260876 0 8 C-2.0625 9.1875 -2.0625 9.1875 -4 10 C-2.66666667 6.66666667 -1.33333333 3.33333333 0 0 Z " fill="#FE4A49" transform="translate(247,314)"/>
<path d="M0 0 C0.66 0 1.32 0 2 0 C1.45276317 3.37462715 0.9451 5.08235 -1 8 C-1.66 8 -2.32 8 -3 8 C-2.690625 7.236875 -2.38125 6.47375 -2.0625 5.6875 C-1.32106407 3.81210323 -0.63771783 1.91315348 0 0 Z " fill="#FD5857" transform="translate(913,317)"/>
</svg>
