<?xml version="1.0" encoding="UTF-8"?>
<svg version="1.1" xmlns="http://www.w3.org/2000/svg" width="1508" height="231">
<path d="M0 0 C497.64 0 995.28 0 1508 0 C1508 76.23 1508 152.46 1508 231 C1010.36 231 512.72 231 0 231 C0 154.77 0 78.54 0 0 Z " fill="#FFFEFE" transform="translate(0,0)"/>
<path d="M0 0 C15.82993487 -0.07028328 31.65982716 -0.12308235 47.48987961 -0.15543652 C54.84112535 -0.17086276 62.19227378 -0.1918704 69.54345703 -0.22631836 C75.95560026 -0.25635145 82.36767296 -0.27560579 88.77988458 -0.28226548 C92.17072555 -0.28615437 95.56136488 -0.29520353 98.95214081 -0.31719017 C102.75043997 -0.33910093 106.54832708 -0.34196116 110.34667969 -0.34057617 C112.00717598 -0.35675491 112.00717598 -0.35675491 113.70121765 -0.3732605 C123.23018303 -0.33588556 133.48238202 0.61002472 141 7 C144.7667983 10.91220779 145.54769151 13.40547452 145.5 18.8125 C145.30404655 24.87441484 144.5728312 29.09674517 141 34 C140.56042969 34.64066406 140.12085938 35.28132813 139.66796875 35.94140625 C130.92444 47.25265483 115.85863157 53.61287924 103 59 C102.34 59 101.68 59 101 59 C101 59.66 101 60.32 101 61 C102.2375 61.226875 103.475 61.45375 104.75 61.6875 C119.53385324 65.03478753 130.53920901 72.60345398 139.3203125 84.83984375 C144.5801513 94.12732135 143.17314056 108.09958654 140.4375 118 C134.65890031 133.88611552 122.96584947 145.48359462 108 153 C95.52204569 158.35004637 82.69363969 160.32210166 69.17285156 160.22705078 C67.50236252 160.22748886 67.50236252 160.22748886 65.79812622 160.22793579 C62.16220977 160.22655616 58.52650511 160.21105992 54.890625 160.1953125 C52.35186881 160.1915775 49.81311118 160.18873283 47.27435303 160.18673706 C41.30358704 160.17991314 35.33288761 160.16419323 29.36215568 160.14403808 C22.55669699 160.12157096 15.75123448 160.11065865 8.94574785 160.10064721 C-5.03620912 160.07982334 -19.01810046 160.04471543 -33 160 C-32.67 158.02 -32.34 156.04 -32 154 C-31.25234375 153.8040625 -30.5046875 153.608125 -29.734375 153.40625 C-28.74953125 153.1071875 -27.7646875 152.808125 -26.75 152.5 C-25.28820312 152.08234375 -25.28820312 152.08234375 -23.796875 151.65625 C-18.69919989 148.63751502 -17.06558765 142.70385868 -15.60229492 137.19580078 C-15.15399075 135.32343853 -14.7184661 133.447989 -14.29296875 131.5703125 C-14.04556442 130.509263 -13.7981601 129.4482135 -13.54325867 128.35501099 C-9.7433135 111.82818286 -6.33845162 95.21044149 -2.88232422 78.60919189 C-2.11881444 74.94563711 -1.35202786 71.28277173 -0.58509541 67.61993217 C0.34410871 63.18174699 1.27187172 58.74326105 2.19921875 54.3046875 C2.45595147 53.07609827 2.45595147 53.07609827 2.71787071 51.82268906 C3.81887359 46.54988494 4.91234989 41.2755735 6 36 C6.22154943 34.93042431 6.22154943 34.93042431 6.44757462 33.83924103 C6.87172896 31.78687514 7.29163215 29.73368634 7.71020508 27.68017578 C7.94927078 26.51334259 8.18833649 25.3465094 8.43464661 24.14431763 C9.88833496 16.56721547 9.88833496 16.56721547 7.375 9.5625 C4.67004117 7.78292182 2.11545201 6.84966873 -1 6 C-0.67 4.02 -0.34 2.04 0 0 Z " fill="#FF3131" transform="translate(777,31)"/>
<path d="M0 0 C-4.73150991 25.32526077 -4.73150991 25.32526077 -7.62451172 37.17016602 C-8.83959032 42.18649505 -9.80993289 47.22030877 -10.71972656 52.29956055 C-11.92704567 58.88543901 -13.40236078 65.40660514 -14.875 71.9375 C-17.06660595 81.66742246 -19.11959273 91.41133787 -21.02368164 101.20141602 C-22.21337374 107.25477921 -23.49719437 113.27841162 -24.8671875 119.29296875 C-25.19214682 120.73087381 -25.51709799 122.16878071 -25.84204102 123.60668945 C-26.47026821 126.3831424 -27.11362455 129.1555036 -27.76538086 131.92651367 C-31.18419235 145.21284437 -31.18419235 145.21284437 -28 158 C-26.07308367 159.32380339 -26.07308367 159.32380339 -23.875 160.25 C-23.15054687 160.58515625 -22.42609375 160.9203125 -21.6796875 161.265625 C-20.84824219 161.62914062 -20.84824219 161.62914062 -20 162 C-20 163.98 -20 165.96 -20 168 C-32.7792846 168.06981024 -45.55852309 168.12296792 -58.33796024 168.15543652 C-64.27330877 168.17102744 -70.2085259 168.19214449 -76.14379883 168.22631836 C-81.8820924 168.25914764 -87.62026036 168.27690232 -93.35864067 168.28463173 C-95.53726615 168.29013322 -97.71588552 168.30087502 -99.89445686 168.31719017 C-118.46802559 168.45063098 -137.94620251 168.26208569 -152.47265625 154.765625 C-162.99726938 142.59906455 -163.01887665 129.29915303 -162 114 C-160.20235441 98.97451783 -152.14476125 84.02609911 -142 73 C-141.25105469 72.15953125 -140.50210937 71.3190625 -139.73046875 70.453125 C-125.5861043 55.37189635 -103.96319665 45.60585464 -83.21313477 44.90600586 C-79.97478929 44.86570712 -76.73856456 44.86363662 -73.5 44.875 C-72.39785156 44.87113281 -71.29570313 44.86726563 -70.16015625 44.86328125 C-64.66755438 44.86987501 -59.40866669 45.02084482 -54 46 C-53.6251527 43.00122158 -53.30450076 40.00646324 -53 37 C-52.92539551 36.36771484 -52.85079102 35.73542969 -52.77392578 35.08398438 C-52.53042222 32.9746161 -52.32552622 30.86385037 -52.125 28.75 C-52.03935791 28.06486328 -51.95371582 27.37972656 -51.86547852 26.67382812 C-51.53266926 22.75842507 -51.8129647 21.24084442 -54.25390625 18.09765625 C-56.59570489 16.30882855 -57.99505298 15.29518465 -60.8125 14.6875 C-61.864375 14.460625 -62.91625 14.23375 -64 14 C-64 12.35 -64 10.7 -64 9 C-50.35829972 6.76306472 -36.70315487 4.62111802 -23.02947998 2.58920288 C-21.51436101 2.36374237 -19.9994256 2.13704477 -18.48468018 1.90908813 C-16.33927672 1.58672624 -14.19320479 1.26925294 -12.046875 0.953125 C-10.18820801 0.67710449 -10.18820801 0.67710449 -8.29199219 0.39550781 C-5.48008136 0.05767812 -2.82616 -0.08174289 0 0 Z " fill="#FF3232" transform="translate(1482,23)"/>
<path d="M0 0 C0.66 0 1.32 0 2 0 C3.19388403 38.85203459 3.19388403 38.85203459 3 56 C1.02 56 -0.96 56 -3 56 C-3.34611328 54.7315625 -3.34611328 54.7315625 -3.69921875 53.4375 C-7.20310294 41.25007675 -11.9507344 32.27353754 -23.265625 25.6796875 C-25.48201894 24.63348756 -27.67641555 23.77725536 -30 23 C-30.97453125 22.66355469 -30.97453125 22.66355469 -31.96875 22.3203125 C-41.29132045 19.70282157 -54.33332989 19.22908493 -63.33984375 23.046875 C-67.03879707 25.17050937 -68.51109621 27.4098026 -69.7578125 31.46484375 C-70.26971343 33.47203425 -70.75100646 35.48719437 -71.20703125 37.5078125 C-72.10249431 41.4513789 -73.13252543 45.34677982 -74.1875 49.25 C-74.53524501 50.5468512 -74.88290883 51.84372418 -75.23046875 53.140625 C-75.48441406 54.08421875 -75.73835938 55.0278125 -76 56 C-72.18668156 55.9182118 -68.3748576 55.80545385 -64.5625 55.6875 C-63.49322266 55.66494141 -62.42394531 55.64238281 -61.32226562 55.61914062 C-52.70514726 55.32926814 -44.26731963 54.5337676 -38 48 C-36.35184132 45.0041133 -36.35184132 45.0041133 -35.1875 41.75 C-34.76855469 40.67234375 -34.34960938 39.5946875 -33.91796875 38.484375 C-33.46357422 37.25460938 -33.46357422 37.25460938 -33 36 C-31.35 36 -29.7 36 -28 36 C-28.9874945 76.82702359 -28.9874945 76.82702359 -30 96 C-31.98 96 -33.96 96 -36 96 C-36.15855469 95.29875 -36.31710938 94.5975 -36.48046875 93.875 C-39.00376358 83.43916648 -39.00376358 83.43916648 -45.9609375 75.65625 C-51.05801269 73.00349712 -55.68475213 71.90670408 -61.421875 71.68359375 C-62.44667969 71.64169922 -63.47148437 71.59980469 -64.52734375 71.55664062 C-65.59082031 71.51732422 -66.65429688 71.47800781 -67.75 71.4375 C-68.82894531 71.39431641 -69.90789062 71.35113281 -71.01953125 71.30664062 C-73.67956428 71.20071011 -76.33968812 71.09863579 -79 71 C-79.10199707 71.69399902 -79.20399414 72.38799805 -79.30908203 73.10302734 C-80.31775507 79.82534511 -81.75762897 86.3867266 -83.3125 93 C-85.38761571 101.91658614 -87.1778059 110.86738162 -88.8125 119.875 C-89.03139893 121.05707031 -89.25029785 122.23914063 -89.47583008 123.45703125 C-91.7389649 133.88966692 -91.7389649 133.88966692 -89.4375 143.875 C-83.83244497 148.76145823 -77.09535541 148.42679635 -69.9609375 148.3203125 C-44.01154001 146.22184051 -23.43844561 132.51273101 -6.7578125 113.21484375 C-3.92016066 109.63940243 -1.41538037 105.87009809 1 102 C3.97 102.99 3.97 102.99 7 104 C4.97562956 110.48901011 2.50864168 116.66509628 -0.2734375 122.86328125 C-0.88186996 124.23313423 -0.88186996 124.23313423 -1.50259399 125.63066101 C-2.78949371 128.52636306 -4.08193551 131.41954626 -5.375 134.3125 C-7.07229481 138.12021323 -8.7672349 141.92896894 -10.4609375 145.73828125 C-10.86334656 146.64256866 -11.26575562 147.54685608 -11.68035889 148.47854614 C-14.55165626 154.94676401 -17.34013944 161.44147504 -20 168 C-20.70611011 167.6757435 -21.41222021 167.35148701 -22.13972759 167.01740456 C-25.21423709 165.92379544 -27.51081342 165.73955228 -30.76435852 165.7215271 C-31.91555679 165.71036362 -33.06675507 165.69920013 -34.25283813 165.68769836 C-35.50656219 165.68553818 -36.76028625 165.68337799 -38.05200195 165.68115234 C-39.39263002 165.67184888 -40.73325232 165.66167958 -42.0738678 165.65071106 C-45.70567507 165.62344402 -49.33744362 165.60827148 -52.96932626 165.59528303 C-56.76769713 165.57963803 -60.56598911 165.55285218 -64.36430359 165.5272522 C-71.55354873 165.48048862 -78.74280875 165.44373282 -85.93212813 165.41057932 C-94.11835233 165.37234081 -102.30449725 165.32293518 -110.49065459 165.27259517 C-127.32704609 165.16931134 -144.16348161 165.08003942 -161 165 C-161 163.02 -161 161.04 -161 159 C-160.32453125 158.84144531 -159.6490625 158.68289062 -158.953125 158.51953125 C-158.06109375 158.28621094 -157.1690625 158.05289063 -156.25 157.8125 C-155.36828125 157.59207031 -154.4865625 157.37164062 -153.578125 157.14453125 C-149.18003642 155.19204647 -147.3927322 152.01816369 -145.6930542 147.61172485 C-145.30243837 146.29311614 -144.92751583 144.96979293 -144.56542969 143.64306641 C-144.35750164 142.90735224 -144.14957359 142.17163807 -143.9353447 141.41362953 C-141.15217112 131.28654696 -139.08156845 120.99061904 -136.953125 110.7109375 C-136.49237874 108.50986675 -136.03108499 106.30891054 -135.5692749 104.10806274 C-134.61051867 99.5320513 -133.65620615 94.95514578 -132.70556641 90.37744141 C-131.48911408 84.52004689 -130.26462949 78.66436922 -129.03725052 72.8092556 C-127.86051352 67.19374671 -126.68800407 61.5773575 -125.515625 55.9609375 C-125.29333473 54.89805889 -125.07104446 53.83518028 -124.84201813 52.74009323 C-124.21296833 49.72874174 -123.58696458 46.71677365 -122.96191406 43.70458984 C-122.77699905 42.82139069 -122.59208405 41.93819153 -122.40156555 41.02822876 C-121.04510833 34.46634846 -119.86388416 27.96916573 -119.75 21.25 C-119.71132812 19.86554687 -119.71132812 19.86554687 -119.671875 18.453125 C-119.8042387 15.97353924 -119.8042387 15.97353924 -121.28515625 14.24609375 C-123.93399158 12.32131364 -126.85495997 11.77142491 -130 11 C-129.67 9.02 -129.34 7.04 -129 5 C-128.04693655 4.99503478 -128.04693655 4.99503478 -127.07461929 4.98996925 C-111.61782053 4.90876523 -96.16113074 4.81668138 -80.70447159 4.71247292 C-73.22975971 4.66234122 -65.75505883 4.61589839 -58.28027344 4.578125 C-51.76560269 4.54519415 -45.25101714 4.50535693 -38.73644042 4.45720994 C-35.28670223 4.43195575 -31.83702048 4.41017133 -28.38721466 4.39665604 C-24.53701183 4.38144275 -20.68701611 4.35081114 -16.83691406 4.31884766 C-15.69180359 4.31668747 -14.54669312 4.31452728 -13.36688232 4.31230164 C-11.79360168 4.29555641 -11.79360168 4.29555641 -10.1885376 4.2784729 C-9.27780613 4.27294214 -8.36707466 4.26741138 -7.42874527 4.26171303 C-4.82382581 3.98101609 -3.20198096 3.40310728 -1 2 C-0.67 1.34 -0.34 0.68 0 0 Z " fill="#FF3232" transform="translate(195,26)"/>
<path d="M0 0 C4.04420705 5.02039496 4.20384054 10.5293162 4.5625 16.75 C4.60568359 17.44738281 4.64886719 18.14476563 4.69335938 18.86328125 C4.79889596 20.57531922 4.8998991 22.28763561 5 24 C5.6084375 23.45472656 6.216875 22.90945312 6.84375 22.34765625 C24.58306354 7.08662916 45.26080715 -1.73822542 69 0 C76.21095961 1.56677918 80.98593539 4.81617073 85 11 C92.67114573 23.87372208 83.31316309 47.15167818 80.33203125 60.45703125 C80.0582666 61.69445068 79.78450195 62.93187012 79.50244141 64.20678711 C78.97318479 66.58907608 78.43310392 68.96899549 77.88037109 71.34594727 C75.13954076 83.299852 75.13954076 83.299852 77.3125 95.0625 C79.03837129 97.2156101 79.03837129 97.2156101 82 99 C85.20379124 99.24246783 85.20379124 99.24246783 88.6875 99.125 C90.45673828 99.09792969 90.45673828 99.09792969 92.26171875 99.0703125 C93.16535156 99.04710937 94.06898438 99.02390625 95 99 C95.66 100.65 96.32 102.3 97 104 C91.66892051 106.84156596 86.32352495 109.6538295 80.96630859 112.44580078 C78.93134537 113.51202102 76.90061603 114.58634956 74.87353516 115.66748047 C71.69630136 117.3601616 68.50592886 119.02561355 65.3125 120.6875 C64.31025391 121.22858398 63.30800781 121.76966797 62.27539062 122.32714844 C56.23210953 125.43390562 52.64448212 126.7689855 46 125 C38.70631878 122.56179667 33.26481964 118.39722946 29 112 C21.97780105 97.86038584 29.17171771 79.02152959 32.65505981 64.61550903 C34.01846029 58.97175401 35.275244 53.31332787 36.4375 47.625 C36.60088867 46.86662842 36.76427734 46.10825684 36.93261719 45.3269043 C37.95214845 40.29793576 38.6699377 35.12301363 38 30 C35.26216018 27.08552535 32.53116764 26.7885981 28.6875 26.5625 C21.14262043 26.8382265 15.30664949 30.83790696 10 36 C-2.41664645 53.05006415 -6.21751084 75.23314725 -10 95.5 C-10.49589534 98.15704337 -10.99660684 100.81311802 -11.5 103.46875 C-11.7165625 104.62826172 -11.933125 105.78777344 -12.15625 106.98242188 C-13.28477339 112.35596961 -14.66829211 117.67316844 -16 123 C-30.85 123 -45.7 123 -61 123 C-58.75311913 107.27183394 -58.75311913 107.27183394 -57.3359375 101.12890625 C-57.18275558 100.45475174 -57.02957367 99.78059723 -56.87174988 99.08601379 C-56.54547734 97.65072762 -56.21695614 96.21595089 -55.88626099 94.78167725 C-54.99028579 90.89261114 -54.11312866 86.99933468 -53.23828125 83.10546875 C-53.05585373 82.29378235 -52.87342621 81.48209595 -52.68547058 80.64581299 C-50.13154996 69.20495254 -47.83369693 57.70979404 -45.52685547 46.21704102 C-45.36445877 45.41304367 -45.20206207 44.60904633 -45.03474426 43.78068542 C-44.73017238 42.27209555 -44.42802737 40.76301298 -44.12870789 39.25337219 C-43.11238363 34.22476726 -43.11238363 34.22476726 -42 32 C-41.17160385 24.04047882 -41.17160385 24.04047882 -44.0625 16.875 C-47.4436391 14.71682611 -50.09755482 13.84170386 -54 13 C-54 11.02 -54 9.04 -54 7 C-42.99619048 4.8417491 -31.92901862 3.25708247 -20.8125 1.8125 C-20.12678925 1.72214478 -19.44107849 1.63178955 -18.73458862 1.53869629 C-16.74682097 1.27781273 -14.75818453 1.02357573 -12.76953125 0.76953125 C-11.61042236 0.62104736 -10.45131348 0.47256348 -9.25708008 0.31958008 C-6.11743208 0.01152227 -3.14892257 -0.22090182 0 0 Z " fill="#FF3232" transform="translate(1216,68)"/>
<path d="M0 0 C3.24539753 5.30748658 3.52826559 9.83319149 3.6875 15.875 C3.72166016 16.75414063 3.75582031 17.63328125 3.79101562 18.5390625 C3.8729314 20.69227705 3.93815579 22.84611551 4 25 C4.47566406 24.52691406 4.95132813 24.05382812 5.44140625 23.56640625 C16.23122501 13.37271008 29.06210539 6.80336321 43 2 C43.7734375 1.73316406 44.546875 1.46632813 45.34375 1.19140625 C54.94983822 -1.4872145 67.87696401 -1.69773955 76.98046875 2.66015625 C81.5839642 5.71431281 84.87909479 9.91904166 87 15 C87.8443696 23.6693661 86.57947207 32.03401783 84.8125 40.5 C84.58981445 41.6135083 84.36712891 42.7270166 84.13769531 43.87426758 C82.47867975 52.03846233 80.63238027 60.15586114 78.61254883 68.23828125 C74.79554501 82.46364557 74.79554501 82.46364557 77.875 96.125 C81.51219927 99.33429347 83.83907067 99.10942088 88.625 99.0625 C90.40777344 99.04896484 90.40777344 99.04896484 92.2265625 99.03515625 C93.14179687 99.02355469 94.05703125 99.01195312 95 99 C95.33 100.65 95.66 102.3 96 104 C88.67543393 108.69972935 81.11439806 112.74876709 73.36450195 116.6953125 C71.82686427 117.4832927 70.29395023 118.28055768 68.76586914 119.08691406 C66.53278693 120.26456179 64.28639891 121.41221811 62.03515625 122.5546875 C61.36299576 122.91601776 60.69083527 123.27734802 59.99830627 123.64962769 C54.7702603 126.24117652 50.66534818 126.27392656 45 125 C35.91151786 121.76648666 31.21041896 116.42083791 27 108 C25.01212824 91.62567489 29.59879615 76.06236523 33.4851532 60.31291199 C37.59136073 45.29864933 37.59136073 45.29864933 38 30 C35.3127057 27.13933188 32.59183775 26.77473909 28.8125 26.5 C21.61514789 26.78741506 15.39695695 30.1823889 10.375 35.25 C7.21455549 39.20989502 5.00600421 43.58313202 2.8125 48.125 C2.4913623 48.78661133 2.17022461 49.44822266 1.83935547 50.12988281 C-3.60068962 62.02207441 -5.97321431 74.9976736 -8.5 87.75 C-10.8587186 99.53550599 -13.39189763 111.26353935 -16 123 C-30.85 123 -45.7 123 -61 123 C-60.33017941 116.97161471 -59.5479952 111.28913191 -58.25 105.41015625 C-58.07585068 104.60404404 -57.90170135 103.79793182 -57.72227478 102.96739197 C-57.34715529 101.23361391 -56.9700187 99.50027124 -56.59103394 97.76733398 C-55.9900919 95.01715613 -55.39574736 92.26562218 -54.80297852 89.51367188 C-52.90685491 80.72243758 -50.98927342 71.93614867 -49.04525757 63.15538025 C-48.204763 59.35200966 -47.37202663 55.54696142 -46.5402832 51.7416687 C-46.14190305 49.92969653 -45.73962707 48.11857602 -45.33325195 46.30838013 C-41.92762848 33.27645297 -41.92762848 33.27645297 -42 20 C-45.24842265 15.27502159 -48.63762847 14.15658994 -54 13 C-54 11.02 -54 9.04 -54 7 C-44.79295124 5.15754784 -35.51513834 3.92690461 -26.20947266 2.71289062 C-23.60909528 2.37292064 -21.00962306 2.02654362 -18.41015625 1.6796875 C-16.74484208 1.46055405 -15.07947916 1.2417907 -13.4140625 1.0234375 C-12.64317291 0.92034271 -11.87228333 0.81724792 -11.07803345 0.71102905 C-7.36188216 0.2309511 -3.74850121 -0.12145774 0 0 Z " fill="#FF3232" transform="translate(554,68)"/>
<path d="M0 0 C5.11739868 4.38739512 9.45123868 8.46429093 10.546875 15.4140625 C10.46395742 23.94075386 8.02376205 29.7260446 2.19921875 35.97265625 C-16.18898325 53.13497812 -50.12278545 53.09907125 -73.6015625 52.94921875 C-74.99218587 52.94418732 -76.38281102 52.93962735 -77.7734375 52.93554688 C-81.13285955 52.92388222 -84.49218669 52.90751489 -87.8515625 52.88671875 C-87.59633533 70.39165427 -87.59633533 70.39165427 -80.7265625 86.19921875 C-72.3746009 94.0064872 -62.99821165 95.36400036 -52.03125 95.1640625 C-37.66331123 94.50800714 -25.59092647 85.83162125 -15.8515625 75.88671875 C-13.06253274 72.64039677 -10.41348898 69.31454776 -7.8515625 65.88671875 C-6.5315625 66.54671875 -5.2115625 67.20671875 -3.8515625 67.88671875 C-4.47542908 72.89567146 -6.67464444 76.9583936 -8.9296875 81.3984375 C-9.33813904 82.20787308 -9.74659058 83.01730865 -10.16741943 83.85127258 C-11.03156014 85.5566245 -11.89917146 87.26022167 -12.77001953 88.9621582 C-14.09836001 91.56793649 -15.40285523 94.18479642 -16.70703125 96.80273438 C-17.55064058 98.46037046 -18.39564603 100.11729692 -19.2421875 101.7734375 C-19.82217499 102.94842049 -19.82217499 102.94842049 -20.41387939 104.1471405 C-23.19415398 109.49296783 -23.19415398 109.49296783 -26.25610352 111.3269043 C-55.28089938 117.58726145 -90.24461893 121.53100913 -116.5390625 105.13671875 C-127.29046029 97.4627138 -135.25765603 87.51706756 -137.609375 74.22265625 C-139.60926439 54.93340055 -133.81034047 37.34910012 -121.75390625 22.26171875 C-95.77113974 -7.79947143 -34.85011607 -25.8272778 0 0 Z " fill="#FF3232" transform="translate(1144.8515625,78.11328125)"/>
<path d="M0 0 C5.00638116 5.54277914 7.37897353 10.0690385 7.28125 17.59375 C6.55331949 23.82159992 2.60366494 29.85782715 -2 34 C-26.93629244 51.77988765 -61.79731706 50.45844086 -91 50 C-91.54776698 61.85306883 -91.56166827 73.59033205 -84 83.5 C-77.41261013 90.07346304 -69.21143232 92.45657419 -60.0625 92.5625 C-44.55789226 92.25520478 -32.3117969 85.49822905 -21.08203125 75.19921875 C-17.55963981 71.47856888 -14.7476871 67.31148329 -12 63 C-10.35 63.66 -8.7 64.32 -7 65 C-7.68984612 68.3323979 -8.9250228 71.10801071 -10.44140625 74.1484375 C-10.93882324 75.14794434 -11.43624023 76.14745117 -11.94873047 77.17724609 C-14.61502393 82.46062156 -17.29420067 87.73673603 -20 93 C-20.41330566 93.81210938 -20.82661133 94.62421875 -21.25244141 95.4609375 C-22.27101719 97.44525744 -23.31496055 99.41259962 -24.375 101.375 C-24.93960938 102.43460937 -25.50421875 103.49421875 -26.0859375 104.5859375 C-29.99220591 109.51261889 -36.84692414 109.62020157 -42.75 110.5625 C-43.49765625 110.68818359 -44.2453125 110.81386719 -45.015625 110.94335938 C-71.36637779 115.25242939 -98.81698163 115.24528895 -122.203125 101.015625 C-129.3191193 95.8873386 -134.86415306 89.20388239 -138 81 C-138.29648437 80.31164062 -138.59296875 79.62328125 -138.8984375 78.9140625 C-144.57057151 63.66694998 -140.71116339 47.85403099 -134.49609375 33.53515625 C-130.29884109 25.02939844 -124.6764642 18.59860456 -118 12 C-117.34257812 11.33226563 -116.68515625 10.66453125 -116.0078125 9.9765625 C-89.05296382 -15.59005363 -29.90054873 -25.05026888 0 0 Z " fill="#FF3232" transform="translate(486,81)"/>
<path d="M0 0 C9.40764713 6.90647165 13.90987187 18.11989092 15.70263672 29.41455078 C18.69037507 55.39168472 13.92381532 80.83069258 -2 102 C-14.23202507 117.22120161 -31.24021958 129.31958136 -51 132 C-66.80090076 133.27526955 -83.04234675 132.14288213 -96 122 C-101.26256706 117.14052318 -104.98607883 111.29626192 -105.42480469 104.01171875 C-105.44551194 102.57046092 -105.44353977 101.12874376 -105.421875 99.6875 C-105.41492615 98.90697266 -105.40797729 98.12644531 -105.40081787 97.32226562 C-105.17604275 88.6225311 -103.31441092 80.41841198 -101.25 72 C-100.89658688 70.50043494 -100.54502277 69.00043291 -100.1953125 67.5 C-99.49702747 64.51396593 -98.79085973 61.5299801 -98.078125 58.54736328 C-96.94461913 53.78552481 -95.84373391 49.01686216 -94.765625 44.2421875 C-94.59548889 43.50250732 -94.42535278 42.76282715 -94.25006104 42.00073242 C-93.06579885 36.71661018 -91.89552808 31.38572391 -93 26 C-95.61086539 21.92705 -99.62253716 20.68363955 -104 19 C-104 17.02 -104 15.04 -104 13 C-101.29332254 12.09777418 -99.2355279 11.76366067 -96.421875 11.53515625 C-95.06280029 11.41998657 -95.06280029 11.41998657 -93.67626953 11.30249023 C-92.71060059 11.22329346 -91.74493164 11.14409668 -90.75 11.0625 C-84.18020292 10.49999911 -77.65238726 9.8739774 -71.125 8.9375 C-63.43639996 7.84649195 -55.74976448 7.38697904 -48 7 C-47.30828909 8.27842999 -46.64825209 9.57399406 -46 10.875 C-45.62875 11.59429687 -45.2575 12.31359375 -44.875 13.0546875 C-42.24830339 21.89633592 -44.76294203 30.99206892 -46.6875 39.75 C-46.95860596 41.02117676 -47.22971191 42.29235352 -47.5090332 43.60205078 C-49.17644832 51.37291726 -50.91607517 59.127253 -52.6875 66.875 C-52.89101074 67.76525879 -53.09452148 68.65551758 -53.30419922 69.57275391 C-53.59834717 70.85931885 -53.59834717 70.85931885 -53.8984375 72.171875 C-54.0850293 72.98978516 -54.27162109 73.80769531 -54.46386719 74.65039062 C-54.80947749 76.16503251 -55.15638431 77.67937942 -55.50488281 79.19335938 C-59.19919251 93.43371714 -59.19919251 93.43371714 -56.1875 107.1875 C-52.31342266 110.3974498 -48.88108476 110.38738768 -44 110 C-32.9946941 106.86330858 -24.07966529 100.14190794 -18.40234375 90.203125 C-13.35811795 80.43690895 -10.44289172 72.17106432 -10.5625 61.125 C-10.56934814 60.15626953 -10.57619629 59.18753906 -10.58325195 58.18945312 C-10.80663272 48.25026378 -12.72149962 40.09653787 -20 33 C-23.26733062 30.68124924 -26.05763465 30.75360217 -30 31 C-32.26566343 31.43941523 -32.26566343 31.43941523 -34 32 C-34.99 29.03 -34.99 29.03 -36 26 C-34.9584375 25.27296875 -33.916875 24.5459375 -32.84375 23.796875 C-23.8375385 17.4872354 -14.96096647 11.03812699 -6.1953125 4.3984375 C-4.16979913 2.87806438 -2.1072795 1.404853 0 0 Z " fill="#FF3232" transform="translate(319,62)"/>
<path d="M0 0 C1.088494 3.26548199 0.91822613 4.28852273 0.1796875 7.55078125 C-0.02366211 8.46706299 -0.22701172 9.38334473 -0.43652344 10.32739258 C-0.6637207 11.31247803 -0.89091797 12.29756348 -1.125 13.3125 C-1.35219727 14.32401123 -1.57939453 15.33552246 -1.81347656 16.37768555 C-2.29243792 18.50517655 -2.77494178 20.63187272 -3.26074219 22.7578125 C-3.98880689 25.95091001 -4.70328969 29.14676348 -5.4140625 32.34375 C-5.85891557 34.33343611 -6.30421138 36.32302329 -6.75 38.3125 C-6.96027832 39.25456299 -7.17055664 40.19662598 -7.38720703 41.16723633 C-7.68280518 42.47084106 -7.68280518 42.47084106 -7.984375 43.80078125 C-8.24299316 44.94800659 -8.24299316 44.94800659 -8.50683594 46.1184082 C-9 48 -9 48 -10 50 C-0.76 50 8.48 50 18 50 C17 55 17 55 12 64 C3.75 64 -4.5 64 -13 64 C-13.5775 67.444375 -14.155 70.88875 -14.75 74.4375 C-15.96775664 81.55395342 -17.27498539 88.61326233 -19 95.625 C-25.76951013 118.27431199 -25.76951013 118.27431199 -23.3125 140.625 C-19.72863344 144.30572781 -16.00161088 145.31668377 -10.9375 145.5 C-4.98385055 145.42739452 -0.7486344 143.29383802 4.37109375 140.41015625 C6.64875046 139.18841171 8.48047033 138.47055046 11 138 C11.83203125 140.0625 11.83203125 140.0625 12 143 C10.31840382 145.56013206 8.68251818 147.70857743 6.6875 150 C5.56974066 151.32524465 4.45388742 152.65209907 3.33984375 153.98046875 C2.7763623 154.64739746 2.21288086 155.31432617 1.63232422 156.00146484 C0.09128058 157.88824068 -1.34034091 159.8119398 -2.74609375 161.80078125 C-9.66005633 171.55948218 -9.66005633 171.55948218 -14.1875 172.75 C-15.445625 172.8325 -16.70375 172.915 -18 173 C-19.03382813 173.165 -20.06765625 173.33 -21.1328125 173.5 C-35.6952355 175.38281833 -51.82382693 175.60785796 -64.09375 166.60546875 C-69.84755709 161.75953696 -72.62250106 156.88734331 -73.36010742 149.29174805 C-73.7089181 136.36465971 -71.18448995 124.3567421 -68.3125 111.8125 C-67.87130542 109.82525562 -67.43184642 107.8376251 -66.99414062 105.84960938 C-66.12237396 101.90224508 -65.24059839 97.9573391 -64.35009766 94.01416016 C-62.92409108 87.68691617 -61.54222665 81.3503774 -60.16796875 75.01171875 C-59.9500618 74.00679886 -59.73215485 73.00187897 -59.50764465 71.96650696 C-59.00455658 69.64445487 -58.50219132 67.3222462 -58 65 C-62.95 65 -67.9 65 -73 65 C-73 63.35 -73 61.7 -73 60 C-71.948125 59.50693359 -71.948125 59.50693359 -70.875 59.00390625 C-60.18980902 53.64679284 -53.21379572 46.24150201 -49 35 C-47.12980764 29.05574261 -45.54503797 23.03551004 -44 17 C-42.71867188 16.78085937 -41.43734375 16.56171875 -40.1171875 16.3359375 C-24.95759111 13.61238387 -12.36056848 9.62643352 0 0 Z " fill="#FF3232" transform="translate(739,20)"/>
<path d="M0 0 C-0.50762939 7.13986247 -1.45872434 13.96552182 -3.0625 20.9375 C-3.38142212 22.36715088 -3.38142212 22.36715088 -3.70678711 23.82568359 C-4.464681 27.21861451 -5.23245011 30.60924075 -6 34 C-7.36055685 40.04023712 -8.7126392 46.0823649 -10.0625 52.125 C-10.32519684 53.29869141 -10.32519684 53.29869141 -10.59320068 54.49609375 C-12.77555048 64.25895845 -14.84141167 74.02321269 -16.62866211 83.86743164 C-17.75650738 89.98597651 -19.15105257 96.01867422 -20.625 102.0625 C-26.01392273 121.13345802 -26.01392273 121.13345802 -23 140 C-19.27152076 143.27654237 -15.90078366 143.33015972 -11.16015625 143.171875 C-8.71466827 142.97729729 -6.37626897 142.6132307 -4 142 C-3.67 143.98 -3.34 145.96 -3 148 C-4.07145264 148.57331055 -4.07145264 148.57331055 -5.16455078 149.15820312 C-7.88162218 150.61326118 -10.59749957 152.07052495 -13.31298828 153.52853394 C-15.12015382 154.49740184 -16.92914603 155.4627946 -18.73828125 156.42797852 C-24.36678692 159.43989126 -29.92222719 162.50252561 -35.328125 165.89990234 C-40.46664869 169.0889686 -44.4188416 171.16263498 -50.49609375 169.87109375 C-59.33415342 166.79638656 -66.85113097 163.07976371 -72 155 C-76.47482972 144.68843587 -73.48654904 133.24297311 -71.02734375 122.78125 C-70.71021574 121.38961166 -70.3945788 119.99763282 -70.08030701 118.60534668 C-69.58047873 116.39121472 -69.07990113 114.1772871 -68.575284 111.96424103 C-66.5717755 103.17126722 -64.69217268 94.35220291 -62.81640625 85.53125 C-62.64199383 84.71148682 -62.46758141 83.89172363 -62.28788376 83.04711914 C-61.40234491 78.88330766 -60.51850544 74.71913998 -59.63598633 70.5546875 C-58.91206433 67.14100158 -58.18354121 63.72834208 -57.45141602 60.31640625 C-56.54789251 56.1053771 -55.65231166 51.89273159 -54.76234245 47.67881775 C-54.42742603 46.09949511 -54.08977193 44.52075017 -53.74917793 42.94264221 C-53.27771825 40.75561593 -52.81653617 38.56665041 -52.35766602 36.37695312 C-52.09454117 35.14110474 -51.83141632 33.90525635 -51.56031799 32.63195801 C-50.79893472 27.69670317 -50.29934115 22.97060302 -52 18.1875 C-54.92113654 14.9925069 -57.88845291 14.28064582 -62 13 C-62 11.35 -62 9.7 -62 8 C-46.24708662 5.07540849 -30.35721698 3.26986244 -14.45214844 1.40917969 C-11.69741955 1.08266444 -8.9461223 0.74030488 -6.1953125 0.3828125 C-3 0 -3 0 0 0 Z " fill="#FF3232" transform="translate(1007,25)"/>
<path d="M0 0 C1.22372541 3.67117624 0.68117006 5.45416629 -0.12402344 9.22460938 C-0.39470642 10.5102478 -0.6653894 11.79588623 -0.9442749 13.1204834 C-1.24905361 14.52829409 -1.55409372 15.93604821 -1.859375 17.34375 C-2.16809359 18.79272051 -2.47621031 20.24181937 -2.78375244 21.69104004 C-3.43144472 24.73517971 -4.08431027 27.77814687 -4.74121094 30.8203125 C-5.57682684 34.69063982 -6.40302306 38.56289547 -7.22567368 42.43599701 C-7.86304677 45.43429455 -8.50388514 48.43184278 -9.14588165 51.42915344 C-9.45109135 52.85453714 -9.75564824 54.28006081 -10.05950165 55.70573425 C-16.45022081 85.6282794 -16.45022081 85.6282794 -21.77734375 89.1875 C-28.18005232 91.52803318 -35.33027512 90.7210028 -41.4375 87.9375 C-47.91753629 84.2094022 -50.60439449 79.85210244 -52.8125 72.8125 C-56.47172716 57.63502371 -52.87212087 40.60247962 -44.8125 27.375 C-34.45130282 12.04307923 -19.84921344 -2.01628579 0 0 Z " fill="#FFFDFD" transform="translate(1423,85)"/>
<path d="M0 0 C6.58874106 4.31103087 12.53961602 10.4001828 14.56640625 18.171875 C16.56339259 31.1972634 15.5422336 43.28513386 8.35546875 54.5859375 C1.21819659 64.28489425 -7.2836901 70.17359122 -19 73 C-21.8811995 73.30913576 -24.72891487 73.36988324 -27.625 73.375 C-28.73101563 73.41173828 -28.73101563 73.41173828 -29.859375 73.44921875 C-33.53724892 73.46899227 -35.79792269 73.11886901 -38.98828125 71.2421875 C-41.19851569 68.77874173 -41.65889781 67.99350275 -41.5625 64.75 C-41.29414117 59.82067205 -40.20361683 55.21509678 -38.9206543 50.45898438 C-37.5474634 45.33365319 -36.36023518 40.17950118 -35.24609375 34.9921875 C-35.01595833 33.9222908 -35.01595833 33.9222908 -34.78117371 32.83078003 C-34.15465995 29.90998795 -33.53056407 26.9887358 -32.91500854 24.06561279 C-32.47656044 21.98544672 -32.03165402 19.9067438 -31.5859375 17.828125 C-31.3286084 16.6102832 -31.0712793 15.39244141 -30.80615234 14.13769531 C-29.52481504 9.15049148 -29.52481504 9.15049148 -28 7 C-25.84863281 5.90332031 -25.84863281 5.90332031 -23.203125 5.078125 C-21.76453125 4.62373047 -21.76453125 4.62373047 -20.296875 4.16015625 C-19.29140625 3.85980469 -18.2859375 3.55945313 -17.25 3.25 C-16.26 2.93417969 -15.27 2.61835937 -14.25 2.29296875 C-4.35984036 -0.76134526 -4.35984036 -0.76134526 0 0 Z " fill="#FFFDFD" transform="translate(853,101)"/>
<path d="M0 0 C1.24426758 -0.02416992 1.24426758 -0.02416992 2.51367188 -0.04882812 C9.09552179 -0.05402296 13.58736188 1.24574126 19.125 4.9375 C21.5679546 8.65079099 21.37727176 12.00320429 20.6875 16.3125 C17.35914922 26.98685574 7.97295654 33.24135549 -1.41357422 38.36035156 C-8.5396599 41.93347244 -16.44525371 44.99624918 -24.3125 46.3125 C-23.5136759 38.69961009 -22.01628572 31.24865368 -20.5 23.75 C-20.1277832 21.81737305 -20.1277832 21.81737305 -19.74804688 19.84570312 C-17.25534245 7.54709274 -17.25534245 7.54709274 -13.3125 2.3125 C-9.01386749 -0.34931078 -4.91151276 -0.01881806 0 0 Z " fill="#FFFCFC" transform="translate(852.3125,45.6875)"/>
<path d="M0 0 C1.2684375 0.8353125 1.2684375 0.8353125 2.5625 1.6875 C3.490625 2.2753125 3.490625 2.2753125 4.4375 2.875 C5.97034608 5.34458535 6.22334955 7.62491717 6.0859375 10.5 C5.00271599 15.02689584 2.15308153 17.87878715 -1.4375 20.6875 C-5.32276579 22.73647194 -9.28328582 24.27539558 -13.4375 25.6875 C-14.40429688 26.038125 -15.37109375 26.38875 -16.3671875 26.75 C-26.366941 29.80335985 -37.06788928 30.00226053 -47.4375 29.6875 C-40.97452687 15.4689591 -31.10745547 5.29094201 -16.4375 -0.3125 C-10.95281732 -2.14072756 -5.39154302 -2.05858915 0 0 Z " fill="#FFFCFC" transform="translate(446.4375,85.3125)"/>
<path d="M0 0 C2.4194197 3.62912955 2.71985285 6.77376713 2 11 C-1.28950484 17.7749363 -7.26375335 20.53321263 -14.0546875 23.19921875 C-25.83193524 27.07217675 -37.64371656 28.40735 -50 28 C-46.77577844 16.39280238 -37.25624601 6.83817081 -27 1 C-17.73792533 -3.49652588 -9.25283893 -5.09850308 0 0 Z " fill="#FFFCFC" transform="translate(1112,87)"/>
</svg>
